Antonio-Bold.ufo
<glyph name="quotedbl" format="1">
  <advance width="944"/>
  <unicode hex="0022"/>
  <outline>
    <contour>
      <point x="606" y="1125" type="line"/>
      <point x="536" y="1761" type="line"/>
      <point x="780" y="1761" type="line"/>
      <point x="714" y="1125" type="line"/>
    </contour>
    <contour>
      <point x="241" y="1125" type="line"/>
      <point x="170" y="1761" type="line"/>
      <point x="415" y="1761" type="line"/>
      <point x="349" y="1125" type="line"/>
    </contour>
  </outline>
</glyph>
<glyph name="numbersign" format="1">
  <advance width="1288"/>
  <unicode hex="0023"/>
  <outline>
    <contour>
      <point x="516" y="752" type="line"/>
      <point x="705" y="752" type="line"/>
      <point x="760" y="1028" type="line"/>
      <point x="571" y="1028" type="line"/>
    </contour>
    <contour>
      <point x="153" y="0" type="line"/>
      <point x="266" y="579" type="line"/>
      <point x="140" y="579" type="line"/>
      <point x="140" y="753" type="line"/>
      <point x="300" y="753" type="line"/>
      <point x="355" y="1031" type="line"/>
      <point x="207" y="1031" type="line"/>
      <point x="207" y="1204" type="line"/>
      <point x="389" y="1204" type="line"/>
      <point x="501" y="1762" type="line"/>
      <point x="718" y="1762" type="line"/>
      <point x="605" y="1204" type="line"/>
      <point x="793" y="1204" type="line"/>
      <point x="905" y="1762" type="line"/>
      <point x="1122" y="1762" type="line"/>
      <point x="1011" y="1204" type="line"/>
      <point x="1134" y="1204" type="line"/>
      <point x="1134" y="1031" type="line"/>
      <point x="977" y="1031" type="line"/>
      <point x="922" y="753" type="line"/>
      <point x="1067" y="753" type="line"/>
      <point x="1067" y="579" type="line"/>
      <point x="887" y="579" type="line"/>
      <point x="773" y="0" type="line"/>
      <point x="557" y="0" type="line"/>
      <point x="670" y="579" type="line"/>
      <point x="482" y="579" type="line"/>
      <point x="369" y="0" type="line"/>
    </contour>
  </outline>
</glyph>
<glyph name="dollar" format="1">
  <advance width="902"/>
  <unicode hex="0024"/>
  <outline>
    <component base="s" yOffset="22"/>
    <contour>
      <point x="396" y="1504" type="line"/>
      <point x="396" y="1760" type="line"/>
      <point x="540" y="1760" type="line"/>
      <point x="540" y="1504" type="line"/>
    </contour>
    <contour>
      <point x="405" y="-220" type="line"/>
      <point x="405" y="53" type="line"/>
      <point x="549" y="53" type="line"/>
      <point x="549" y="-220" type="line"/>
    </contour>
  </outline>
</glyph>
<glyph name="percent" format="1">
  <advance width="2209"/>
  <unicode hex="0025"/>
  <outline>
    <contour>
      <point x="580" y="821"/>
      <point x="555" y="768"/>
      <point x="468" y="768" type="curve" smooth="yes"/>
      <point x="381" y="768"/>
      <point x="356" y="821"/>
      <point x="356" y="939" type="curve" smooth="yes"/>
      <point x="356" y="1431" type="line" smooth="yes"/>
      <point x="356" y="1546"/>
      <point x="378" y="1594"/>
      <point x="468" y="1594" type="curve" smooth="yes"/>
      <point x="558" y="1594"/>
      <point x="580" y="1547"/>
      <point x="580" y="1431" type="curve" smooth="yes"/>
      <point x="580" y="939" type="line" smooth="yes"/>
    </contour>
    <contour>
      <point x="130" y="713"/>
      <point x="231" y="580"/>
      <point x="468" y="580" type="curve" smooth="yes"/>
      <point x="706" y="580"/>
      <point x="806" y="713"/>
      <point x="806" y="1005" type="curve" smooth="yes"/>
      <point x="806" y="1363" type="line" smooth="yes"/>
      <point x="806" y="1658"/>
      <point x="713" y="1781"/>
      <point x="468" y="1781" type="curve" smooth="yes"/>
      <point x="223" y="1781"/>
      <point x="130" y="1658"/>
      <point x="130" y="1363" type="curve" smooth="yes"/>
      <point x="130" y="1005" type="line" smooth="yes"/>
    </contour>
    <contour>
      <point x="1854" y="220"/>
      <point x="1828" y="167"/>
      <point x="1741" y="167" type="curve" smooth="yes"/>
      <point x="1654" y="167"/>
      <point x="1629" y="220"/>
      <point x="1629" y="338" type="curve" smooth="yes"/>
      <point x="1629" y="830" type="line" smooth="yes"/>
      <point x="1629" y="945"/>
      <point x="1651" y="993"/>
      <point x="1741" y="993" type="curve" smooth="yes"/>
      <point x="1831" y="993"/>
      <point x="1854" y="946"/>
      <point x="1854" y="830" type="curve" smooth="yes"/>
      <point x="1854" y="338" type="line" smooth="yes"/>
    </contour>
    <contour>
      <point x="1403" y="112"/>
      <point x="1504" y="-21"/>
      <point x="1741" y="-21" type="curve" smooth="yes"/>
      <point x="1979" y="-21"/>
      <point x="2080" y="112"/>
      <point x="2080" y="404" type="curve" smooth="yes"/>
      <point x="2080" y="762" type="line" smooth="yes"/>
      <point x="2080" y="1057"/>
      <point x="1987" y="1180"/>
      <point x="1741" y="1180" type="curve" smooth="yes"/>
      <point x="1496" y="1180"/>
      <point x="1403" y="1057"/>
      <point x="1403" y="762" type="curve" smooth="yes"/>
      <point x="1403" y="404" type="line" smooth="yes"/>
    </contour>
    <contour>
      <point x="662" y="0" type="line"/>
      <point x="875" y="0" type="line"/>
      <point x="1551" y="1761" type="line"/>
      <point x="1347" y="1761" type="line"/>
    </contour>
  </outline>
</glyph>
<glyph name="ampersand" format="1">
  <advance width="1052"/>
  <unicode hex="0026"/>
  <outline>
    <contour>
      <point x="73" y="121"/>
      <point x="195" y="-20"/>
      <point x="394" y="-20" type="curve" smooth="yes"/>
      <point x="761" y="-20"/>
      <point x="810" y="433"/>
      <point x="1041" y="690" type="curve"/>
      <point x="932" y="874" type="line"/>
      <point x="664" y="556"/>
      <point x="589" y="209"/>
      <point x="439" y="209" type="curve" smooth="yes"/>
      <point x="342" y="209"/>
      <point x="296" y="276"/>
      <point x="300" y="403" type="curve" smooth="yes"/>
      <point x="313" y="705"/>
      <point x="847" y="1025"/>
      <point x="847" y="1434" type="curve" smooth="yes"/>
      <point x="847" y="1656"/>
      <point x="743" y="1781"/>
      <point x="531" y="1781" type="curve" smooth="yes"/>
      <point x="336" y="1781"/>
      <point x="208" y="1658"/>
      <point x="208" y="1431" type="curve" smooth="yes"/>
      <point x="208" y="1164"/>
      <point x="667" y="202"/>
      <point x="750" y="0" type="curve"/>
      <point x="998" y="0" type="line"/>
      <point x="892" y="252"/>
      <point x="451" y="1242"/>
      <point x="451" y="1441" type="curve" smooth="yes"/>
      <point x="451" y="1515"/>
      <point x="467" y="1600"/>
      <point x="561" y="1600" type="curve" smooth="yes"/>
      <point x="639" y="1600"/>
      <point x="662" y="1553"/>
      <point x="662" y="1438" type="curve" smooth="yes"/>
      <point x="662" y="1122"/>
      <point x="73" y="804"/>
      <point x="73" y="378" type="curve" smooth="yes"/>
    </contour>
  </outline>
</glyph>
<glyph name="quotesingle" format="1">
  <advance width="423"/>
  <unicode hex="0027"/>
  <outline>
    <contour>
      <point x="160" y="1125" type="line"/>
      <point x="273" y="1125" type="line"/>
      <point x="338" y="1761" type="line"/>
      <point x="100" y="1761" type="line"/>
    </contour>
  </outline>
</glyph>
<glyph name="parenleft" format="1">
  <advance width="619"/>
  <unicode hex="0028"/>
  <outline>
    <contour>
      <point x="129" y="-50"/>
      <point x="235" y="-136"/>
      <point x="534" y="-136" type="curve"/>
      <point x="534" y="64" type="line"/>
      <point x="414" y="64"/>
      <point x="395" y="110"/>
      <point x="395" y="309" type="curve" smooth="yes"/>
      <point x="395" y="1378" type="line" smooth="yes"/>
      <point x="395" y="1577"/>
      <point x="414" y="1623"/>
      <point x="534" y="1623" type="curve"/>
      <point x="534" y="1823" type="line"/>
      <point x="235" y="1823"/>
      <point x="129" y="1737"/>
      <point x="129" y="1374" type="curve" smooth="yes"/>
      <point x="129" y="313" type="line" smooth="yes"/>
    </contour>
  </outline>
</glyph>
<glyph name="parenright" format="1">
  <advance width="619"/>
  <unicode hex="0029"/>
  <outline>
    <contour>
      <point x="86" y="-136" type="curve"/>
      <point x="86" y="64" type="line"/>
      <point x="206" y="64"/>
      <point x="225" y="110"/>
      <point x="225" y="309" type="curve" smooth="yes"/>
      <point x="225" y="1378" type="line" smooth="yes"/>
      <point x="225" y="1577"/>
      <point x="206" y="1623"/>
      <point x="86" y="1623" type="curve"/>
      <point x="86" y="1823" type="line"/>
      <point x="385" y="1823"/>
      <point x="490" y="1737"/>
      <point x="490" y="1374" type="curve" smooth="yes"/>
      <point x="490" y="313" type="line" smooth="yes"/>
      <point x="490" y="-50"/>
      <point x="385" y="-136"/>
    </contour>
  </outline>
</glyph>
<glyph name="asterisk" format="1">
  <advance width="960"/>
  <unicode hex="002A"/>
  <outline>
    <contour>
      <point x="386" y="889" type="line"/>
      <point x="421" y="1180" type="line"/>
      <point x="190" y="998" type="line"/>
      <point x="95" y="1162" type="line"/>
      <point x="355" y="1285" type="line"/>
      <point x="91" y="1400" type="line"/>
      <point x="186" y="1564" type="line"/>
      <point x="420" y="1391" type="line"/>
      <point x="386" y="1673" type="line"/>
      <point x="574" y="1673" type="line"/>
      <point x="546" y="1395" type="line"/>
      <point x="774" y="1568" type="line"/>
      <point x="869" y="1404" type="line"/>
      <point x="605" y="1285" type="line"/>
      <point x="869" y="1158" type="line"/>
      <point x="774" y="995" type="line"/>
      <point x="546" y="1174" type="line"/>
      <point x="574" y="889" type="line"/>
    </contour>
  </outline>
</glyph>
<glyph name="plus" format="1">
  <advance width="808"/>
  <unicode hex="002B"/>
  <outline>
    <contour>
      <point x="312" y="421" type="line"/>
      <point x="494" y="421" type="line"/>
      <point x="494" y="654" type="line"/>
      <point x="713" y="654" type="line"/>
      <point x="713" y="831" type="line"/>
      <point x="494" y="831" type="line"/>
      <point x="494" y="1062" type="line"/>
      <point x="312" y="1062" type="line"/>
      <point x="312" y="831" type="line"/>
      <point x="94" y="831" type="line"/>
      <point x="94" y="654" type="line"/>
      <point x="312" y="654" type="line"/>
    </contour>
  </outline>
</glyph>
<glyph name="hyphen" format="1">
  <advance width="696"/>
  <unicode hex="002D"/>
  <outline>
    <contour>
      <point x="89" y="661" type="line"/>
      <point x="567" y="661" type="line"/>
      <point x="567" y="836" type="line"/>
      <point x="89" y="836" type="line"/>
    </contour>
  </outline>
</glyph>
<glyph name="slash" format="1">
  <advance width="826"/>
  <unicode hex="002F"/>
  <outline>
    <contour>
      <point x="86" y="0" type="line"/>
      <point x="513" y="1769" type="line"/>
      <point x="748" y="1769" type="line"/>
      <point x="320" y="0" type="line"/>
    </contour>
  </outline>
</glyph>
<glyph name="two" format="1">
  <advance width="951"/>
  <unicode hex="0032"/>
  <outline>
    <contour>
      <point x="160" y="0" type="line"/>
      <point x="160" y="104" type="line" smooth="yes"/>
      <point x="160" y="296"/>
      <point x="226" y="465"/>
      <point x="348" y="679" type="curve"/>
      <point x="367" y="707"/>
      <point x="468" y="891"/>
      <point x="522" y="968" type="curve"/>
      <point x="570" y="1048"/>
      <point x="600" y="1182"/>
      <point x="600" y="1304" type="curve" smooth="yes"/>
      <point x="600" y="1497"/>
      <point x="564" y="1549"/>
      <point x="504" y="1549" type="curve" smooth="yes"/>
      <point x="444" y="1549"/>
      <point x="397" y="1513"/>
      <point x="397" y="1288" type="curve" smooth="yes"/>
      <point x="397" y="1065" type="line"/>
      <point x="141" y="1065" type="line"/>
      <point x="141" y="1173" type="line" smooth="yes"/>
      <point x="141" y="1553"/>
      <point x="189" y="1780"/>
      <point x="511" y="1780" type="curve" smooth="yes"/>
      <point x="760" y="1780"/>
      <point x="854" y="1561"/>
      <point x="854" y="1293" type="curve" smooth="yes"/>
      <point x="854" y="823"/>
      <point x="517" y="642"/>
      <point x="415" y="210" type="curve"/>
      <point x="821" y="210" type="line"/>
      <point x="821" y="0" type="line"/>
    </contour>
  </outline>
</glyph>
<glyph name="three" format="1">
  <advance width="960"/>
  <unicode hex="0033"/>
  <outline>
    <contour>
      <point x="105" y="142"/>
      <point x="196" y="-20"/>
      <point x="469" y="-20" type="curve" smooth="yes"/>
      <point x="758" y="-20"/>
      <point x="867" y="160"/>
      <point x="867" y="503" type="curve" smooth="yes"/>
      <point x="867" y="720"/>
      <point x="822" y="876"/>
      <point x="683" y="941" type="curve"/>
      <point x="809" y="987"/>
      <point x="864" y="1130"/>
      <point x="864" y="1316" type="curve" smooth="yes"/>
      <point x="864" y="1625"/>
      <point x="745" y="1780"/>
      <point x="478" y="1780" type="curve" smooth="yes"/>
      <point x="204" y="1780"/>
      <point x="107" y="1630"/>
      <point x="107" y="1316" type="curve" smooth="yes"/>
      <point x="107" y="1261" type="line"/>
      <point x="366" y="1261" type="line"/>
      <point x="366" y="1314" type="line" smooth="yes"/>
      <point x="366" y="1484"/>
      <point x="393" y="1549"/>
      <point x="484" y="1549" type="curve" smooth="yes"/>
      <point x="560" y="1549"/>
      <point x="604" y="1503"/>
      <point x="604" y="1316" type="curve" smooth="yes"/>
      <point x="604" y="1112"/>
      <point x="568" y="1032"/>
      <point x="440" y="1032" type="curve" smooth="yes"/>
      <point x="366" y="1032" type="line"/>
      <point x="366" y="828" type="line"/>
      <point x="442" y="828" type="line" smooth="yes"/>
      <point x="574" y="828"/>
      <point x="604" y="734"/>
      <point x="604" y="504" type="curve" smooth="yes"/>
      <point x="604" y="307"/>
      <point x="584" y="210"/>
      <point x="478" y="210" type="curve" smooth="yes"/>
      <point x="370" y="210"/>
      <point x="356" y="288"/>
      <point x="356" y="467" type="curve" smooth="yes"/>
      <point x="356" y="589" type="line"/>
      <point x="105" y="589" type="line"/>
      <point x="105" y="474" type="line" smooth="yes"/>
    </contour>
  </outline>
</glyph>
<glyph name="five" format="1">
  <advance width="951"/>
  <unicode hex="0035"/>
  <outline>
    <contour>
      <point x="122" y="122"/>
      <point x="222" y="-20"/>
      <point x="471" y="-20" type="curve" smooth="yes"/>
      <point x="807" y="-20"/>
      <point x="831" y="199"/>
      <point x="831" y="668" type="curve" smooth="yes"/>
      <point x="831" y="1064"/>
      <point x="769" y="1246"/>
      <point x="557" y="1246" type="curve" smooth="yes"/>
      <point x="480" y="1246"/>
      <point x="405" y="1213"/>
      <point x="380" y="1163" type="curve"/>
      <point x="380" y="1520" type="line"/>
      <point x="784" y="1520" type="line"/>
      <point x="784" y="1760" type="line"/>
      <point x="133" y="1760" type="line"/>
      <point x="133" y="862" type="line"/>
      <point x="369" y="852" type="line"/>
      <point x="369" y="968"/>
      <point x="406" y="1023"/>
      <point x="473" y="1023" type="curve" smooth="yes"/>
      <point x="556" y="1023"/>
      <point x="571" y="947"/>
      <point x="571" y="832" type="curve" smooth="yes"/>
      <point x="571" y="382" type="line" smooth="yes"/>
      <point x="571" y="266"/>
      <point x="547" y="209"/>
      <point x="471" y="209" type="curve" smooth="yes"/>
      <point x="386" y="209"/>
      <point x="373" y="279"/>
      <point x="373" y="371" type="curve" smooth="yes"/>
      <point x="373" y="564" type="line"/>
      <point x="122" y="564" type="line"/>
      <point x="122" y="343" type="line" smooth="yes"/>
    </contour>
  </outline>
</glyph>
<glyph name="six" format="1">
  <advance width="951"/>
  <unicode hex="0036"/>
  <outline>
    <contour>
      <point x="102" y="185"/>
      <point x="173" y="-21"/>
      <point x="499" y="-21" type="curve" smooth="yes"/>
      <point x="802" y="-21"/>
      <point x="881" y="152"/>
      <point x="881" y="483" type="curve" smooth="yes"/>
      <point x="881" y="580" type="line" smooth="yes"/>
      <point x="881" y="928"/>
      <point x="809" y="1107"/>
      <point x="569" y="1103" type="curve" smooth="yes"/>
      <point x="484" y="1102"/>
      <point x="409" y="1072"/>
      <point x="370" y="1019" type="curve"/>
      <point x="370" y="1270" type="line" smooth="yes"/>
      <point x="370" y="1477"/>
      <point x="387" y="1548"/>
      <point x="489" y="1548" type="curve" smooth="yes"/>
      <point x="587" y="1548"/>
      <point x="595" y="1478"/>
      <point x="595" y="1281" type="curve" smooth="yes"/>
      <point x="595" y="1276"/>
      <point x="595" y="1250"/>
      <point x="595" y="1245" type="curve"/>
      <point x="845" y="1245" type="line"/>
      <point x="845" y="1252"/>
      <point x="845" y="1329"/>
      <point x="845" y="1336" type="curve" smooth="yes"/>
      <point x="843" y="1664"/>
      <point x="736" y="1781"/>
      <point x="502" y="1781" type="curve" smooth="yes"/>
      <point x="232" y="1781"/>
      <point x="102" y="1652"/>
      <point x="102" y="1250" type="curve" smooth="yes"/>
      <point x="102" y="527" type="line" smooth="yes"/>
    </contour>
    <contour>
      <point x="622" y="264"/>
      <point x="595" y="212"/>
      <point x="499" y="212" type="curve" smooth="yes"/>
      <point x="400" y="212"/>
      <point x="370" y="289"/>
      <point x="370" y="459" type="curve" smooth="yes"/>
      <point x="370" y="777" type="line"/>
      <point x="378" y="826"/>
      <point x="428" y="871"/>
      <point x="504" y="871" type="curve" smooth="yes"/>
      <point x="594" y="871"/>
      <point x="622" y="796"/>
      <point x="622" y="601" type="curve" smooth="yes"/>
      <point x="622" y="434" type="line" smooth="yes"/>
    </contour>
  </outline>
</glyph>
<glyph name="seven" format="1">
  <advance width="951"/>
  <unicode hex="0037"/>
  <outline>
    <contour>
      <point x="222" y="1"/>
      <point x="500" y="1"/>
      <point x="500" y="1" type="curve"/>
      <point x="525" y="406"/>
      <point x="612" y="762"/>
      <point x="704" y="1046" type="curve" smooth="yes"/>
      <point x="779" y="1284"/>
      <point x="869" y="1459"/>
      <point x="881" y="1566" type="curve"/>
      <point x="881" y="1761" type="line"/>
      <point x="104" y="1761" type="line"/>
      <point x="104" y="1526" type="line"/>
      <point x="604" y="1526" type="line"/>
      <point x="597" y="1500"/>
      <point x="550" y="1382"/>
      <point x="493" y="1203" type="curve" smooth="yes"/>
      <point x="377" y="875"/>
      <point x="243" y="485"/>
      <point x="208" y="1" type="curve"/>
    </contour>
  </outline>
</glyph>
<glyph name="eight" format="1">
  <advance width="951"/>
  <unicode hex="0038"/>
  <outline>
    <contour>
      <point x="478" y="1033" type="curve" smooth="yes"/>
      <point x="547" y="1033"/>
      <point x="589" y="1088"/>
      <point x="589" y="1317" type="curve" smooth="yes"/>
      <point x="589" y="1542"/>
      <point x="559" y="1573"/>
      <point x="478" y="1573" type="curve" smooth="yes"/>
      <point x="399" y="1573"/>
      <point x="368" y="1532"/>
      <point x="368" y="1315" type="curve" smooth="yes"/>
      <point x="368" y="1087"/>
      <point x="407" y="1033"/>
    </contour>
    <contour>
      <point x="480" y="208" type="curve" smooth="yes"/>
      <point x="580" y="208"/>
      <point x="590" y="280"/>
      <point x="590" y="442" type="curve" smooth="yes"/>
      <point x="590" y="586" type="line" smooth="yes"/>
      <point x="590" y="760"/>
      <point x="556" y="856"/>
      <point x="480" y="856" type="curve" smooth="yes"/>
      <point x="408" y="856"/>
      <point x="360" y="764"/>
      <point x="360" y="585" type="curve" smooth="yes"/>
      <point x="360" y="438" type="line" smooth="yes"/>
      <point x="361" y="277"/>
      <point x="377" y="208"/>
    </contour>
    <contour>
      <point x="479" y="-21" type="curve" smooth="yes"/>
      <point x="223" y="-21"/>
      <point x="97" y="125"/>
      <point x="93" y="431" type="curve" smooth="yes"/>
      <point x="92" y="438"/>
      <point x="92" y="550"/>
      <point x="92" y="557" type="curve" smooth="yes"/>
      <point x="92" y="735"/>
      <point x="147" y="896"/>
      <point x="241" y="961" type="curve"/>
      <point x="142" y="1031"/>
      <point x="100" y="1171"/>
      <point x="100" y="1341" type="curve" smooth="yes"/>
      <point x="100" y="1648"/>
      <point x="212" y="1781"/>
      <point x="479" y="1781" type="curve" smooth="yes"/>
      <point x="751" y="1781"/>
      <point x="856" y="1654"/>
      <point x="856" y="1341" type="curve" smooth="yes"/>
      <point x="856" y="1169"/>
      <point x="816" y="1030"/>
      <point x="716" y="961" type="curve"/>
      <point x="805" y="896"/>
      <point x="858" y="732"/>
      <point x="858" y="557" type="curve" smooth="yes"/>
      <point x="858" y="436" type="line" smooth="yes"/>
      <point x="855" y="126"/>
      <point x="736" y="-21"/>
    </contour>
  </outline>
</glyph>
<glyph name="nine" format="1">
  <advance width="951"/>
  <unicode hex="0039"/>
  <outline>
    <contour>
      <point x="96" y="96"/>
      <point x="221" y="-20"/>
      <point x="441" y="-20" type="curve" smooth="yes"/>
      <point x="711" y="-20"/>
      <point x="823" y="128"/>
      <point x="823" y="530" type="curve" smooth="yes"/>
      <point x="823" y="1233" type="line" smooth="yes"/>
      <point x="823" y="1586"/>
      <point x="776" y="1781"/>
      <point x="450" y="1781" type="curve" smooth="yes"/>
      <point x="137" y="1781"/>
      <point x="67" y="1579"/>
      <point x="67" y="1248" type="curve" smooth="yes"/>
      <point x="67" y="1184" type="line" smooth="yes"/>
      <point x="67" y="850"/>
      <point x="147" y="664"/>
      <point x="394" y="664" type="curve" smooth="yes"/>
      <point x="470" y="664"/>
      <point x="524" y="679"/>
      <point x="557" y="701" type="curve"/>
      <point x="557" y="498" type="line" smooth="yes"/>
      <point x="557" y="300"/>
      <point x="560" y="210"/>
      <point x="460" y="210" type="curve" smooth="yes"/>
      <point x="366" y="210"/>
      <point x="348" y="270"/>
      <point x="347" y="482" type="curve" smooth="yes"/>
      <point x="347" y="486"/>
      <point x="347" y="514"/>
      <point x="347" y="519" type="curve"/>
      <point x="94" y="519" type="line"/>
      <point x="94" y="511"/>
      <point x="94" y="430"/>
      <point x="94" y="423" type="curve" smooth="yes"/>
    </contour>
    <contour>
      <point x="548" y="913"/>
      <point x="512" y="884"/>
      <point x="444" y="884" type="curve" smooth="yes"/>
      <point x="351" y="884"/>
      <point x="329" y="956"/>
      <point x="329" y="1144" type="curve" smooth="yes"/>
      <point x="329" y="1301" type="line" smooth="yes"/>
      <point x="329" y="1465"/>
      <point x="350" y="1548"/>
      <point x="446" y="1548" type="curve" smooth="yes"/>
      <point x="535" y="1548"/>
      <point x="557" y="1468"/>
      <point x="557" y="1304" type="curve" smooth="yes"/>
      <point x="557" y="970" type="line"/>
    </contour>
  </outline>
</glyph>
<glyph name="semicolon" format="1">
  <advance width="561"/>
  <unicode hex="003B"/>
  <outline>
    <contour>
      <point x="126" y="944" type="line"/>
      <point x="126" y="1250" type="line"/>
      <point x="427" y="1250" type="line"/>
      <point x="427" y="944" type="line"/>
    </contour>
    <contour>
      <point x="184" y="-107" type="line"/>
      <point x="262" y="255" type="line"/>
      <point x="132" y="255" type="line"/>
      <point x="132" y="533" type="line"/>
      <point x="435" y="533" type="line"/>
      <point x="435" y="264" type="line"/>
      <point x="326" y="-107" type="line"/>
    </contour>
  </outline>
</glyph>
<glyph name="equal" format="1">
  <advance width="722"/>
  <unicode hex="003D"/>
  <outline>
    <contour>
      <point x="104" y="549" type="line"/>
      <point x="618" y="549" type="line"/>
      <point x="618" y="738" type="line"/>
      <point x="104" y="738" type="line"/>
    </contour>
    <contour>
      <point x="104" y="892" type="line"/>
      <point x="618" y="892" type="line"/>
      <point x="618" y="1076" type="line"/>
      <point x="104" y="1076" type="line"/>
    </contour>
  </outline>
</glyph>
<glyph name="greater" format="1">
  <advance width="730"/>
  <unicode hex="003E"/>
  <outline>
    <contour>
      <point x="90" y="238" type="line"/>
      <point x="664" y="605" type="line"/>
      <point x="664" y="898" type="line"/>
      <point x="90" y="1264" type="line"/>
      <point x="90" y="992" type="line"/>
      <point x="486" y="749" type="line"/>
      <point x="90" y="513" type="line"/>
    </contour>
  </outline>
</glyph>
<glyph name="question" format="1">
  <advance width="897"/>
  <unicode hex="003F"/>
  <outline>
    <contour>
      <point x="257" y="1" type="line"/>
      <point x="257" y="299" type="line"/>
      <point x="489" y="299" type="line"/>
      <point x="489" y="1" type="line"/>
    </contour>
    <contour>
      <point x="251" y="494" type="line"/>
      <point x="251" y="810" type="line"/>
      <point x="536" y="883"/>
      <point x="547" y="997"/>
      <point x="547" y="1340" type="curve" smooth="yes"/>
      <point x="547" y="1481"/>
      <point x="549" y="1549"/>
      <point x="469" y="1549" type="curve" smooth="yes"/>
      <point x="382" y="1549"/>
      <point x="381" y="1484"/>
      <point x="381" y="1336" type="curve" smooth="yes"/>
      <point x="381" y="1160" type="line"/>
      <point x="120" y="1160" type="line"/>
      <point x="120" y="1376" type="line" smooth="yes"/>
      <point x="120" y="1591"/>
      <point x="194" y="1781"/>
      <point x="465" y="1781" type="curve" smooth="yes"/>
      <point x="769" y="1781"/>
      <point x="815" y="1602"/>
      <point x="815" y="1283" type="curve" smooth="yes"/>
      <point x="815" y="937"/>
      <point x="765" y="764"/>
      <point x="487" y="684" type="curve"/>
      <point x="487" y="494" type="line"/>
    </contour>
  </outline>
</glyph>
<glyph name="at" format="1">
  <advance width="1492"/>
  <unicode hex="0040"/>
  <outline>
    <contour>
      <point x="748" y="547" type="curve" smooth="yes"/>
      <point x="823" y="547"/>
      <point x="888" y="628"/>
      <point x="888" y="759" type="curve" smooth="yes"/>
      <point x="888" y="1062" type="line"/>
      <point x="700" y="1164"/>
      <point x="618" y="1065"/>
      <point x="618" y="804" type="curve" smooth="yes"/>
      <point x="618" y="617"/>
      <point x="665" y="547"/>
    </contour>
    <contour>
      <point x="736" y="-59" type="curve" smooth="yes"/>
      <point x="337" y="-59"/>
      <point x="97" y="218"/>
      <point x="97" y="836" type="curve" smooth="yes"/>
      <point x="97" y="1416"/>
      <point x="325" y="1780"/>
      <point x="813" y="1780" type="curve" smooth="yes"/>
      <point x="1201" y="1780"/>
      <point x="1396" y="1459"/>
      <point x="1396" y="910" type="curve" smooth="yes"/>
      <point x="1396" y="591"/>
      <point x="1313" y="378"/>
      <point x="1114" y="378" type="curve" smooth="yes"/>
      <point x="1033" y="378"/>
      <point x="947" y="455"/>
      <point x="915" y="597" type="curve"/>
      <point x="890" y="449"/>
      <point x="818" y="361"/>
      <point x="719" y="361" type="curve" smooth="yes"/>
      <point x="573" y="361"/>
      <point x="445" y="488"/>
      <point x="445" y="798" type="curve" smooth="yes"/>
      <point x="445" y="1096"/>
      <point x="547" y="1283"/>
      <point x="717" y="1283" type="curve" smooth="yes"/>
      <point x="800" y="1283"/>
      <point x="866" y="1225"/>
      <point x="896" y="1161" type="curve"/>
      <point x="927" y="1283" type="line"/>
      <point x="1056" y="1283" type="line"/>
      <point x="1056" y="739" type="line" smooth="yes"/>
      <point x="1056" y="613"/>
      <point x="1073" y="544"/>
      <point x="1129" y="544" type="curve" smooth="yes"/>
      <point x="1200" y="544"/>
      <point x="1227" y="634"/>
      <point x="1227" y="942" type="curve" smooth="yes"/>
      <point x="1227" y="1286"/>
      <point x="1145" y="1609"/>
      <point x="800" y="1609" type="curve" smooth="yes"/>
      <point x="448" y="1609"/>
      <point x="293" y="1315"/>
      <point x="293" y="833" type="curve" smooth="yes"/>
      <point x="293" y="326"/>
      <point x="444" y="110"/>
      <point x="739" y="110" type="curve" smooth="yes"/>
      <point x="795" y="110"/>
      <point x="866" y="118"/>
      <point x="932" y="138" type="curve"/>
      <point x="959" y="-30" type="line"/>
      <point x="865" y="-49"/>
      <point x="806" y="-59"/>
    </contour>
  </outline>
</glyph>
<glyph name="A" format="1">
  <advance width="976"/>
  <unicode hex="0041"/>
  <outline>
    <contour>
      <point x="52" y="0" type="line"/>
      <point x="310" y="0" type="line"/>
      <point x="482" y="1413" type="line"/>
      <point x="486" y="1413" type="line"/>
      <point x="674" y="0" type="line"/>
      <point x="924" y="0" type="line"/>
      <point x="657" y="1760" type="line"/>
      <point x="303" y="1760" type="line"/>
    </contour>
    <contour>
      <point x="286" y="314" type="line"/>
      <point x="690" y="314" type="line"/>
      <point x="690" y="529" type="line"/>
      <point x="286" y="529" type="line"/>
    </contour>
    <contour>
      <point x="880" y="10" type="move" name="ogonek"/>
    </contour>
    <contour>
      <point x="482" y="1760" type="move" name="top"/>
    </contour>
  </outline>
</glyph>
<glyph name="B" format="1">
  <advance width="996"/>
  <unicode hex="0042"/>
  <outline>
    <contour>
      <point x="410" y="1048" type="line"/>
      <point x="509" y="1048" type="line" smooth="yes"/>
      <point x="602" y="1048"/>
      <point x="621" y="1092"/>
      <point x="621" y="1273" type="curve" smooth="yes"/>
      <point x="621" y="1379" type="line"/>
      <point x="620" y="1521"/>
      <point x="584" y="1550"/>
      <point x="500" y="1550" type="curve" smooth="yes"/>
      <point x="410" y="1550" type="line"/>
    </contour>
    <contour>
      <point x="410" y="208" type="line"/>
      <point x="505" y="208" type="line" smooth="yes"/>
      <point x="611" y="208"/>
      <point x="649" y="270"/>
      <point x="649" y="460" type="curve" smooth="yes"/>
      <point x="649" y="602" type="line" smooth="yes"/>
      <point x="649" y="773"/>
      <point x="625" y="847"/>
      <point x="523" y="847" type="curve" smooth="yes"/>
      <point x="410" y="847" type="line"/>
    </contour>
    <contour>
      <point x="142" y="0" type="line"/>
      <point x="142" y="1760" type="line"/>
      <point x="523" y="1760" type="line" smooth="yes"/>
      <point x="788" y="1760"/>
      <point x="884" y="1646"/>
      <point x="885" y="1362" type="curve"/>
      <point x="885" y="1308" type="line" smooth="yes"/>
      <point x="885" y="1125"/>
      <point x="842" y="1005"/>
      <point x="731" y="959" type="curve"/>
      <point x="869" y="913"/>
      <point x="919" y="748"/>
      <point x="919" y="544" type="curve" smooth="yes"/>
      <point x="919" y="499" type="line"/>
      <point x="917" y="146"/>
      <point x="805" y="0"/>
      <point x="531" y="0" type="curve" smooth="yes"/>
    </contour>
  </outline>
</glyph>
<glyph name="C" format="1">
  <advance width="961"/>
  <unicode hex="0043"/>
  <outline>
    <contour>
      <point x="110" y="163"/>
      <point x="237" y="-20"/>
      <point x="493" y="-20" type="curve" smooth="yes"/>
      <point x="763" y="-20"/>
      <point x="875" y="145"/>
      <point x="875" y="480" type="curve" smooth="yes"/>
      <point x="875" y="729" type="line"/>
      <point x="612" y="729" type="line"/>
      <point x="612" y="477" type="line" smooth="yes"/>
      <point x="612" y="292"/>
      <point x="586" y="210"/>
      <point x="496" y="210" type="curve" smooth="yes"/>
      <point x="406" y="210"/>
      <point x="380" y="290"/>
      <point x="380" y="474" type="curve" smooth="yes"/>
      <point x="380" y="1296" type="line" smooth="yes"/>
      <point x="380" y="1454"/>
      <point x="404" y="1548"/>
      <point x="502" y="1548" type="curve" smooth="yes"/>
      <point x="590" y="1548"/>
      <point x="612" y="1468"/>
      <point x="612" y="1295" type="curve" smooth="yes"/>
      <point x="612" y="1070" type="line"/>
      <point x="871" y="1070" type="line"/>
      <point x="871" y="1312" type="line" smooth="yes"/>
      <point x="871" y="1601"/>
      <point x="766" y="1780"/>
      <point x="500" y="1780" type="curve" smooth="yes"/>
      <point x="206" y="1780"/>
      <point x="110" y="1575"/>
      <point x="110" y="1253" type="curve" smooth="yes"/>
      <point x="110" y="486" type="line" smooth="yes"/>
    </contour>
    <contour>
      <point x="500" y="1760" type="move" name="top"/>
    </contour>
    <contour>
      <point x="489" y="0" type="move" name="bottom"/>
    </contour>
  </outline>
</glyph>
<glyph name="D" format="1">
  <advance width="1005"/>
  <unicode hex="0044"/>
  <outline>
    <contour>
      <point x="131" y="0" type="line"/>
      <point x="131" y="1760" type="line"/>
      <point x="526" y="1760" type="line" smooth="yes"/>
      <point x="793" y="1760"/>
      <point x="895" y="1594"/>
      <point x="895" y="1308" type="curve" smooth="yes"/>
      <point x="896" y="514" type="line" smooth="yes"/>
      <point x="896" y="167"/>
      <point x="793" y="0"/>
      <point x="517" y="0" type="curve" smooth="yes"/>
    </contour>
    <contour>
      <point x="399" y="208" type="line"/>
      <point x="487" y="208" type="line" smooth="yes"/>
      <point x="581" y="208"/>
      <point x="628" y="254"/>
      <point x="628" y="432" type="curve" smooth="yes"/>
      <point x="627" y="1301" type="line" smooth="yes"/>
      <point x="627" y="1481"/>
      <point x="589" y="1554"/>
      <point x="478" y="1554" type="curve" smooth="yes"/>
      <point x="399" y="1554" type="line"/>
    </contour>
  </outline>
</glyph>
<glyph name="E" format="1">
  <advance width="816"/>
  <unicode hex="0045"/>
  <outline>
    <contour>
      <point x="132" y="0" type="line"/>
      <point x="734" y="0" type="line"/>
      <point x="734" y="231" type="line"/>
      <point x="400" y="231" type="line"/>
      <point x="400" y="791" type="line"/>
      <point x="706" y="791" type="line"/>
      <point x="706" y="1017" type="line"/>
      <point x="400" y="1017" type="line"/>
      <point x="400" y="1529" type="line"/>
      <point x="722" y="1529" type="line"/>
      <point x="722" y="1760" type="line"/>
      <point x="132" y="1760" type="line"/>
    </contour>
    <contour>
      <point x="739" y="10" type="move" name="ogonek"/>
    </contour>
    <contour>
      <point x="479" y="11" type="move" name="bottom"/>
    </contour>
    <contour>
      <point x="439" y="1760" type="move" name="top"/>
    </contour>
  </outline>
</glyph>
<glyph name="F" format="1">
  <advance width="796"/>
  <unicode hex="0046"/>
  <outline>
    <contour>
      <point x="131" y="0" type="line"/>
      <point x="399" y="0" type="line"/>
      <point x="399" y="825" type="line"/>
      <point x="711" y="825" type="line"/>
      <point x="711" y="1059" type="line"/>
      <point x="399" y="1059" type="line"/>
      <point x="399" y="1527" type="line"/>
      <point x="735" y="1527" type="line"/>
      <point x="735" y="1760" type="line"/>
      <point x="131" y="1760" type="line"/>
    </contour>
  </outline>
</glyph>
<glyph name="G" format="1">
  <advance width="1000"/>
  <unicode hex="0047"/>
  <outline>
    <contour>
      <point x="110" y="139"/>
      <point x="251" y="-18"/>
      <point x="463" y="-18" type="curve" smooth="yes"/>
      <point x="584" y="-18"/>
      <point x="690" y="52"/>
      <point x="719" y="173" type="curve"/>
      <point x="760" y="0" type="line"/>
      <point x="880" y="0" type="line"/>
      <point x="880" y="961" type="line"/>
      <point x="511" y="961" type="line"/>
      <point x="511" y="766" type="line"/>
      <point x="646" y="766" type="line"/>
      <point x="646" y="529" type="line" smooth="yes"/>
      <point x="646" y="299"/>
      <point x="608" y="210"/>
      <point x="507" y="210" type="curve" smooth="yes"/>
      <point x="403" y="210"/>
      <point x="380" y="298"/>
      <point x="380" y="519" type="curve" smooth="yes"/>
      <point x="380" y="1282" type="line" smooth="yes"/>
      <point x="380" y="1481"/>
      <point x="413" y="1548"/>
      <point x="513" y="1548" type="curve" smooth="yes"/>
      <point x="603" y="1548"/>
      <point x="630" y="1487"/>
      <point x="630" y="1329" type="curve" smooth="yes"/>
      <point x="630" y="1145" type="line"/>
      <point x="880" y="1145" type="line"/>
      <point x="880" y="1270" type="line" smooth="yes"/>
      <point x="880" y="1591"/>
      <point x="818" y="1780"/>
      <point x="509" y="1780" type="curve" smooth="yes"/>
      <point x="224" y="1780"/>
      <point x="110" y="1595"/>
      <point x="110" y="1280" type="curve" smooth="yes"/>
      <point x="110" y="515" type="line" smooth="yes"/>
    </contour>
    <contour>
      <point x="505" y="1760" type="move" name="top"/>
    </contour>
    <contour>
      <point x="505" y="0" type="move" name="bottom"/>
    </contour>
  </outline>
</glyph>
<glyph name="H" format="1">
  <advance width="1040"/>
  <unicode hex="0048"/>
  <outline>
    <contour>
      <point x="132" y="0" type="line"/>
      <point x="132" y="1760" type="line"/>
      <point x="400" y="1760" type="line"/>
      <point x="400" y="1048" type="line"/>
      <point x="640" y="1048" type="line"/>
      <point x="640" y="1760" type="line"/>
      <point x="908" y="1760" type="line"/>
      <point x="908" y="0" type="line"/>
      <point x="640" y="0" type="line"/>
      <point x="640" y="818" type="line"/>
      <point x="400" y="818" type="line"/>
      <point x="400" y="0" type="line"/>
    </contour>
  </outline>
</glyph>
<glyph name="I" format="1">
  <advance width="552"/>
  <unicode hex="0049"/>
  <outline>
    <contour>
      <point x="142" y="0" type="line"/>
      <point x="142" y="1760" type="line"/>
      <point x="410" y="1760" type="line"/>
      <point x="410" y="0" type="line"/>
    </contour>
  </outline>
</glyph>
<glyph name="J" format="1">
  <advance width="922"/>
  <unicode hex="004A"/>
  <outline>
    <contour>
      <point x="68" y="119"/>
      <point x="204" y="-20"/>
      <point x="434" y="-20" type="curve" smooth="yes"/>
      <point x="660" y="-20"/>
      <point x="794" y="142"/>
      <point x="794" y="431" type="curve" smooth="yes"/>
      <point x="794" y="1760" type="line"/>
      <point x="526" y="1760" type="line"/>
      <point x="526" y="418" type="line" smooth="yes"/>
      <point x="526" y="290"/>
      <point x="514" y="210"/>
      <point x="426" y="210" type="curve" smooth="yes"/>
      <point x="339" y="210"/>
      <point x="327" y="297"/>
      <point x="327" y="402" type="curve" smooth="yes"/>
      <point x="327" y="703" type="line"/>
      <point x="68" y="703" type="line"/>
      <point x="68" y="389" type="line" smooth="yes"/>
    </contour>
    <contour>
      <point x="578" y="1760" type="move" name="top"/>
    </contour>
  </outline>
</glyph>
<glyph name="L" format="1">
  <advance width="761"/>
  <unicode hex="004C"/>
  <outline>
    <contour>
      <point x="132" y="0" type="line"/>
      <point x="739" y="0" type="line"/>
      <point x="739" y="228" type="line"/>
      <point x="400" y="228" type="line"/>
      <point x="400" y="1760" type="line"/>
      <point x="132" y="1760" type="line"/>
    </contour>
    <contour>
      <point x="385" y="1760" type="move" name="top"/>
    </contour>
    <contour>
      <point x="409" y="0" type="move" name="bottom"/>
    </contour>
  </outline>
</glyph>
<glyph name="M" format="1">
  <advance width="1418"/>
  <unicode hex="004D"/>
  <outline>
    <contour>
      <point x="950" y="1760" type="line"/>
      <point x="1285" y="1760" type="line"/>
      <point x="1285" y="0" type="line"/>
      <point x="1046" y="0" type="line"/>
      <point x="1046" y="656" type="line"/>
      <point x="1056" y="1258" type="line"/>
      <point x="819" y="8" type="line"/>
      <point x="606" y="8" type="line"/>
      <point x="359" y="1258" type="line"/>
      <point x="369" y="656" type="line"/>
      <point x="369" y="0" type="line"/>
      <point x="132" y="0" type="line"/>
      <point x="132" y="1760" type="line"/>
      <point x="465" y="1760" type="line"/>
      <point x="715" y="474" type="line"/>
    </contour>
  </outline>
</glyph>
<glyph name="P" format="1">
  <advance width="944"/>
  <unicode hex="0050"/>
  <outline>
    <contour>
      <point x="132" y="0" type="line"/>
      <point x="400" y="0" type="line"/>
      <point x="400" y="694" type="line"/>
      <point x="545" y="694" type="line" smooth="yes"/>
      <point x="821" y="694"/>
      <point x="896" y="886"/>
      <point x="896" y="1227" type="curve" smooth="yes"/>
      <point x="896" y="1236"/>
      <point x="896" y="1255"/>
      <point x="896" y="1264" type="curve" smooth="yes"/>
      <point x="891" y="1586"/>
      <point x="816" y="1760"/>
      <point x="536" y="1760" type="curve" smooth="yes"/>
      <point x="132" y="1760" type="line"/>
    </contour>
    <contour>
      <point x="400" y="915" type="line"/>
      <point x="400" y="1554" type="line"/>
      <point x="494" y="1554" type="line" smooth="yes"/>
      <point x="607" y="1554"/>
      <point x="627" y="1455"/>
      <point x="628" y="1264" type="curve" smooth="yes"/>
      <point x="628" y="1258"/>
      <point x="628" y="1236"/>
      <point x="628" y="1230" type="curve" smooth="yes"/>
      <point x="628" y="997"/>
      <point x="610" y="915"/>
      <point x="492" y="915" type="curve" smooth="yes"/>
    </contour>
    <contour>
      <point x="476" y="1760" type="move" name="top"/>
    </contour>
  </outline>
</glyph>
<glyph name="Q" format="1">
  <advance width="999"/>
  <unicode hex="0051"/>
  <outline>
    <contour>
      <point x="452" y="-5" type="line"/>
      <point x="622" y="87" type="line"/>
      <point x="848" y="-177" type="line"/>
      <point x="716" y="-292" type="line"/>
    </contour>
    <component base="O"/>
  </outline>
</glyph>
<glyph name="R" format="1">
  <advance width="1010"/>
  <unicode hex="0052"/>
  <outline>
    <contour>
      <point x="132" y="0" type="line"/>
      <point x="400" y="0" type="line"/>
      <point x="400" y="831" type="line"/>
      <point x="406" y="831"/>
      <point x="481" y="827"/>
      <point x="486" y="827" type="curve" smooth="yes"/>
      <point x="599" y="825"/>
      <point x="627" y="788"/>
      <point x="627" y="631" type="curve" smooth="yes"/>
      <point x="627" y="424"/>
      <point x="628" y="18"/>
      <point x="637" y="0" type="curve"/>
      <point x="905" y="0" type="line"/>
      <point x="895" y="25"/>
      <point x="895" y="412"/>
      <point x="895" y="447" type="curve" smooth="yes"/>
      <point x="895" y="787"/>
      <point x="854" y="910"/>
      <point x="732" y="932" type="curve"/>
      <point x="861" y="972"/>
      <point x="892" y="1087"/>
      <point x="892" y="1294" type="curve" smooth="yes"/>
      <point x="892" y="1594"/>
      <point x="851" y="1760"/>
      <point x="575" y="1760" type="curve" smooth="yes"/>
      <point x="132" y="1760" type="line"/>
    </contour>
    <contour>
      <point x="401" y="1039" type="line"/>
      <point x="401" y="1554" type="line"/>
      <point x="492" y="1554" type="line" smooth="yes"/>
      <point x="611" y="1554"/>
      <point x="627" y="1509"/>
      <point x="627" y="1323" type="curve" smooth="yes"/>
      <point x="627" y="1322"/>
      <point x="627" y="1314"/>
      <point x="627" y="1312" type="curve" smooth="yes"/>
      <point x="627" y="1089"/>
      <point x="606" y="1039"/>
      <point x="508" y="1039" type="curve" smooth="yes"/>
    </contour>
    <contour>
      <point x="509" y="1760" type="move" name="top"/>
    </contour>
    <contour>
      <point x="509" y="0" type="move" name="bottom"/>
    </contour>
  </outline>
</glyph>
<glyph name="S" format="1">
  <advance width="905"/>
  <unicode hex="0053"/>
  <outline>
    <contour>
      <point x="97" y="170"/>
      <point x="182" y="-20"/>
      <point x="475" y="-20" type="curve" smooth="yes"/>
      <point x="751" y="-20"/>
      <point x="841" y="147"/>
      <point x="841" y="463" type="curve" smooth="yes"/>
      <point x="841" y="661"/>
      <point x="760" y="816"/>
      <point x="621" y="966" type="curve" smooth="yes"/>
      <point x="476" y="1123" type="line" smooth="yes"/>
      <point x="390" y="1215"/>
      <point x="347" y="1267"/>
      <point x="347" y="1378" type="curve" smooth="yes"/>
      <point x="347" y="1499"/>
      <point x="381" y="1553"/>
      <point x="464" y="1553" type="curve" smooth="yes"/>
      <point x="552" y="1553"/>
      <point x="571" y="1474"/>
      <point x="571" y="1314" type="curve" smooth="yes"/>
      <point x="571" y="1188" type="line"/>
      <point x="818" y="1188" type="line"/>
      <point x="818" y="1297" type="line" smooth="yes"/>
      <point x="818" y="1603"/>
      <point x="749" y="1781"/>
      <point x="466" y="1781" type="curve" smooth="yes"/>
      <point x="185" y="1781"/>
      <point x="95" y="1629"/>
      <point x="95" y="1351" type="curve" smooth="yes"/>
      <point x="95" y="1158"/>
      <point x="180" y="1029"/>
      <point x="287" y="918" type="curve" smooth="yes"/>
      <point x="417" y="784" type="line" smooth="yes"/>
      <point x="529" y="667"/>
      <point x="584" y="565"/>
      <point x="584" y="433" type="curve" smooth="yes"/>
      <point x="584" y="273"/>
      <point x="566" y="209"/>
      <point x="470" y="209" type="curve" smooth="yes"/>
      <point x="376" y="209"/>
      <point x="351" y="285"/>
      <point x="351" y="475" type="curve" smooth="yes"/>
      <point x="351" y="652" type="line"/>
      <point x="97" y="652" type="line"/>
      <point x="97" y="495" type="line" smooth="yes"/>
    </contour>
    <contour>
      <point x="476" y="1758" type="move" name="top"/>
    </contour>
    <contour>
      <point x="457" y="0" type="move" name="bottom"/>
    </contour>
  </outline>
</glyph>
<glyph name="T" format="1">
  <advance width="707.164383562"/>
  <unicode hex="0054"/>
  <outline>
    <contour>
      <point x="18.0821917808" y="1760" type="line"/>
      <point x="689.082191781" y="1760" type="line"/>
      <point x="689.082191781" y="1528" type="line"/>
      <point x="491.082191781" y="1528" type="line"/>
      <point x="491.082191781" y="0" type="line"/>
      <point x="224.082191781" y="0" type="line"/>
      <point x="224.082191781" y="1528" type="line"/>
      <point x="18.0821917808" y="1528" type="line"/>
    </contour>
  </outline>
</glyph>
<glyph name="U" format="1">
  <advance width="1013.83783784"/>
  <unicode hex="0055"/>
  <outline>
    <contour>
      <point x="626.918918919" y="1761" type="line"/>
      <point x="894.918918919" y="1761" type="line"/>
      <point x="894.918918919" y="452" type="line" smooth="yes"/>
      <point x="894.918918919" y="132"/>
      <point x="781.918918919" y="-20"/>
      <point x="507.918918919" y="-20" type="curve" smooth="yes"/>
      <point x="233.918918919" y="-20"/>
      <point x="118.918918919" y="132"/>
      <point x="118.918918919" y="452" type="curve" smooth="yes"/>
      <point x="118.918918919" y="1761" type="line"/>
      <point x="386.918918919" y="1761" type="line"/>
      <point x="386.918918919" y="457" type="line" smooth="yes"/>
      <point x="386.918918919" y="308"/>
      <point x="393.918918919" y="209"/>
      <point x="506.918918919" y="209" type="curve" smooth="yes"/>
      <point x="621.918918919" y="209"/>
      <point x="626.918918919" y="307"/>
      <point x="626.918918919" y="457" type="curve" smooth="yes"/>
    </contour>
  </outline>
</glyph>
<glyph name="V" format="1">
  <advance width="966"/>
  <unicode hex="0056"/>
  <outline>
    <contour>
      <point x="329" y="0" type="line"/>
      <point x="660" y="0" type="line"/>
      <point x="911" y="1760" type="line"/>
      <point x="661" y="1760" type="line"/>
      <point x="565" y="965" type="line"/>
      <point x="504" y="405" type="line"/>
      <point x="497" y="405" type="line"/>
      <point x="426" y="965" type="line"/>
      <point x="311" y="1760" type="line"/>
      <point x="56" y="1760" type="line"/>
    </contour>
  </outline>
</glyph>
<glyph name="W" format="1">
  <advance width="1360.03448276"/>
  <unicode hex="0057"/>
  <outline>
    <contour>
      <point x="1073.51724138" y="1760" type="line"/>
      <point x="1314.51724138" y="1760" type="line"/>
      <point x="1112.51724138" y="0" type="line"/>
      <point x="845.517241379" y="0" type="line"/>
      <point x="689.517241379" y="1170" type="line"/>
      <point x="527.517241379" y="0" type="line"/>
      <point x="260.517241379" y="0" type="line"/>
      <point x="45.5172413793" y="1760" type="line"/>
      <point x="285.517241379" y="1760" type="line"/>
      <point x="414.517241379" y="506" type="line"/>
      <point x="578.517241379" y="1760" type="line"/>
      <point x="794.517241379" y="1760" type="line"/>
      <point x="959.517241379" y="506" type="line"/>
    </contour>
  </outline>
</glyph>
<glyph name="X" format="1">
  <advance width="879"/>
  <unicode hex="0058"/>
  <outline>
    <contour>
      <point x="35" y="0" type="line"/>
      <point x="294" y="0" type="line"/>
      <point x="493" y="741" type="line"/>
      <point x="529" y="744" type="line"/>
      <point x="829" y="1760" type="line"/>
      <point x="578" y="1760" type="line"/>
      <point x="375" y="1008" type="line"/>
      <point x="324" y="1008" type="line"/>
    </contour>
    <contour>
      <point x="618" y="0" type="line"/>
      <point x="850" y="0" type="line"/>
      <point x="262" y="1760" type="line"/>
      <point x="36" y="1760" type="line"/>
    </contour>
  </outline>
</glyph>
<glyph name="Y" format="1">
  <advance width="878.736842105"/>
  <unicode hex="0059"/>
  <outline>
    <contour>
      <point x="606.368421053" y="1760" type="line"/>
      <point x="861.368421053" y="1760" type="line"/>
      <point x="580.368421053" y="703" type="line"/>
      <point x="580.368421053" y="0" type="line"/>
      <point x="312.368421053" y="0" type="line"/>
      <point x="312.368421053" y="703" type="line"/>
      <point x="17.3684210526" y="1760" type="line"/>
      <point x="273.368421053" y="1760" type="line"/>
      <point x="447.368421053" y="1102" type="line"/>
      <point x="451.368421053" y="1102" type="line"/>
    </contour>
  </outline>
</glyph>
<glyph name="Z" format="1">
  <advance width="748.857142857"/>
  <unicode hex="005A"/>
  <outline>
    <contour>
      <point x="95.8571428571" y="1760" type="line"/>
      <point x="708.857142857" y="1760" type="line"/>
      <point x="708.857142857" y="1543" type="line"/>
      <point x="343.857142857" y="231" type="line"/>
      <point x="700.857142857" y="231" type="line"/>
      <point x="700.857142857" y="0" type="line"/>
      <point x="62.8571428571" y="0" type="line"/>
      <point x="62.8571428571" y="238" type="line"/>
      <point x="427.857142857" y="1529" type="line"/>
      <point x="95.8571428571" y="1529" type="line"/>
    </contour>
  </outline>
</glyph>
<glyph name="bracketleft" format="1">
  <advance width="764"/>
  <unicode hex="005B"/>
  <outline>
    <contour>
      <point x="179" y="0" type="line"/>
      <point x="650" y="0" type="line"/>
      <point x="650" y="209" type="line"/>
      <point x="445" y="209" type="line"/>
      <point x="445" y="1552" type="line"/>
      <point x="650" y="1552" type="line"/>
      <point x="650" y="1761" type="line"/>
      <point x="179" y="1761" type="line"/>
    </contour>
  </outline>
</glyph>
<glyph name="backslash" format="1">
  <advance width="868"/>
  <unicode hex="005C"/>
  <outline>
    <contour>
      <point x="507" y="0" type="line"/>
      <point x="96" y="1761" type="line"/>
      <point x="334" y="1761" type="line"/>
      <point x="744" y="0" type="line"/>
    </contour>
  </outline>
</glyph>
<glyph name="asciicircum" format="1">
  <advance width="1030"/>
  <unicode hex="005E"/>
  <outline>
    <contour>
      <point x="114" y="576" type="line"/>
      <point x="371" y="576" type="line"/>
      <point x="515" y="1288" type="line"/>
      <point x="659" y="576" type="line"/>
      <point x="915" y="576" type="line"/>
      <point x="674" y="1499" type="line"/>
      <point x="355" y="1499" type="line"/>
    </contour>
  </outline>
</glyph>
<glyph name="grave" format="1">
  <advance width="650"/>
  <unicode hex="0060"/>
  <outline>
    <contour>
      <point x="517" y="908" type="line"/>
      <point x="104" y="1002" type="line"/>
      <point x="104" y="1267" type="line"/>
      <point x="517" y="1064" type="line"/>
    </contour>
  </outline>
</glyph>
<glyph name="a" format="1">
  <advance width="981"/>
  <unicode hex="0061"/>
  <outline>
    <contour>
      <point x="109" y="147"/>
      <point x="176" y="-15"/>
      <point x="382" y="-15" type="curve" smooth="yes"/>
      <point x="494" y="-15"/>
      <point x="570" y="63"/>
      <point x="595" y="149" type="curve"/>
      <point x="595" y="0" type="line"/>
      <point x="862" y="0" type="line"/>
      <point x="862" y="1070" type="line" smooth="yes"/>
      <point x="862" y="1361"/>
      <point x="760" y="1518"/>
      <point x="501" y="1518" type="curve" smooth="yes"/>
      <point x="207" y="1518"/>
      <point x="127" y="1355"/>
      <point x="127" y="1081" type="curve" smooth="yes"/>
      <point x="127" y="1036" type="line"/>
      <point x="389" y="1036" type="line"/>
      <point x="389" y="1103" type="line" smooth="yes"/>
      <point x="389" y="1240"/>
      <point x="406" y="1304"/>
      <point x="493" y="1304" type="curve" smooth="yes"/>
      <point x="581" y="1304"/>
      <point x="591" y="1246"/>
      <point x="591" y="1095" type="curve" smooth="yes"/>
      <point x="591" y="305" type="line"/>
      <point x="581" y="255"/>
      <point x="540" y="196"/>
      <point x="474" y="196" type="curve" smooth="yes"/>
      <point x="402" y="196"/>
      <point x="377" y="254"/>
      <point x="377" y="392" type="curve" smooth="yes"/>
      <point x="377" y="553" type="line" smooth="yes"/>
      <point x="377" y="704"/>
      <point x="435" y="746"/>
      <point x="606" y="821" type="curve"/>
      <point x="606" y="970" type="line"/>
      <point x="308" y="858"/>
      <point x="107" y="815"/>
      <point x="107" y="490" type="curve" smooth="yes"/>
      <point x="107" y="394" type="line" smooth="yes"/>
    </contour>
    <contour>
      <point x="883" y="10" type="move" name="ogonek"/>
    </contour>
    <contour>
      <point x="510" y="1500" type="move" name="top"/>
    </contour>
  </outline>
</glyph>
<glyph name="b" format="1">
  <advance width="996"/>
  <unicode hex="0062"/>
  <outline>
    <contour>
      <point x="439" y="31"/>
      <point x="516" y="-15"/>
      <point x="605" y="-15" type="curve" smooth="yes"/>
      <point x="821" y="-15"/>
      <point x="885" y="179"/>
      <point x="885" y="434" type="curve" smooth="yes"/>
      <point x="885" y="1069" type="line" smooth="yes"/>
      <point x="885" y="1333"/>
      <point x="822" y="1522"/>
      <point x="585" y="1518" type="curve" smooth="yes"/>
      <point x="512" y="1517"/>
      <point x="427" y="1470"/>
      <point x="397" y="1392" type="curve"/>
      <point x="397" y="1775" type="line"/>
      <point x="132" y="1775" type="line"/>
      <point x="132" y="0" type="line"/>
      <point x="397" y="0" type="line"/>
      <point x="397" y="140" type="line"/>
    </contour>
    <contour>
      <point x="619" y="287"/>
      <point x="608" y="197"/>
      <point x="516" y="197" type="curve" smooth="yes"/>
      <point x="415" y="197"/>
      <point x="397" y="291"/>
      <point x="397" y="456" type="curve" smooth="yes"/>
      <point x="397" y="1074" type="line" smooth="yes"/>
      <point x="397" y="1253"/>
      <point x="435" y="1304"/>
      <point x="518" y="1304" type="curve" smooth="yes"/>
      <point x="609" y="1304"/>
      <point x="619" y="1209"/>
      <point x="619" y="1073" type="curve" smooth="yes"/>
      <point x="619" y="459" type="line" smooth="yes"/>
    </contour>
  </outline>
</glyph>
<glyph name="c" format="1">
  <advance width="938.666666667"/>
  <unicode hex="0063"/>
  <outline>
    <contour>
      <point x="110" y="986" type="line" smooth="yes"/>
      <point x="110" y="1317"/>
      <point x="181" y="1518"/>
      <point x="497" y="1518" type="curve" smooth="yes"/>
      <point x="756" y="1518"/>
      <point x="847" y="1351"/>
      <point x="847" y="1085" type="curve" smooth="yes"/>
      <point x="847" y="920" type="line"/>
      <point x="591" y="920" type="line"/>
      <point x="591" y="1094" type="line" smooth="yes"/>
      <point x="591" y="1224"/>
      <point x="583" y="1301"/>
      <point x="491" y="1301" type="curve" smooth="yes"/>
      <point x="400" y="1301"/>
      <point x="377" y="1222"/>
      <point x="377" y="1090" type="curve" smooth="yes"/>
      <point x="377" y="414" type="line" smooth="yes"/>
      <point x="377" y="278"/>
      <point x="395" y="199"/>
      <point x="487" y="199" type="curve" smooth="yes"/>
      <point x="577" y="199"/>
      <point x="591" y="283"/>
      <point x="591" y="413" type="curve" smooth="yes"/>
      <point x="591" y="591" type="line"/>
      <point x="847" y="591" type="line"/>
      <point x="847" y="439" type="line" smooth="yes"/>
      <point x="847" y="163"/>
      <point x="759" y="-18"/>
      <point x="494" y="-18" type="curve" smooth="yes"/>
      <point x="186" y="-18"/>
      <point x="110" y="177"/>
      <point x="110" y="500" type="curve" smooth="yes"/>
    </contour>
  </outline>
</glyph>
<glyph name="d" format="1">
  <advance width="998"/>
  <unicode hex="0064"/>
  <outline>
    <contour>
      <point x="484" y="196" type="curve" smooth="yes"/>
      <point x="580" y="196"/>
      <point x="602" y="280"/>
      <point x="602" y="463" type="curve" smooth="yes"/>
      <point x="602" y="1063" type="line" smooth="yes"/>
      <point x="602" y="1209"/>
      <point x="583" y="1303"/>
      <point x="488" y="1303" type="curve" smooth="yes"/>
      <point x="397" y="1303"/>
      <point x="377" y="1215"/>
      <point x="377" y="1060" type="curve" smooth="yes"/>
      <point x="377" y="443" type="line" smooth="yes"/>
      <point x="377" y="288"/>
      <point x="400" y="196"/>
    </contour>
    <contour>
      <point x="386" y="-15" type="curve" smooth="yes"/>
      <point x="142" y="-15"/>
      <point x="110" y="201"/>
      <point x="110" y="479" type="curve" smooth="yes"/>
      <point x="110" y="1090" type="line" smooth="yes"/>
      <point x="110" y="1331"/>
      <point x="190" y="1518"/>
      <point x="407" y="1518" type="curve" smooth="yes"/>
      <point x="492" y="1518"/>
      <point x="563" y="1473"/>
      <point x="601" y="1407" type="curve"/>
      <point x="601" y="1775" type="line"/>
      <point x="866" y="1775" type="line"/>
      <point x="866" y="0" type="line"/>
      <point x="601" y="0" type="line"/>
      <point x="601" y="139" type="line"/>
      <point x="561" y="37"/>
      <point x="489" y="-15"/>
    </contour>
  </outline>
</glyph>
<glyph name="e" format="1">
  <advance width="958"/>
  <unicode hex="0065"/>
  <outline>
    <contour>
      <point x="110" y="183"/>
      <point x="180" y="-18"/>
      <point x="481" y="-18" type="curve" smooth="yes"/>
      <point x="793" y="-18"/>
      <point x="852" y="167"/>
      <point x="852" y="489" type="curve" smooth="yes"/>
      <point x="852" y="569" type="line"/>
      <point x="590" y="569" type="line"/>
      <point x="590" y="437" type="line" smooth="yes"/>
      <point x="590" y="296"/>
      <point x="589" y="196"/>
      <point x="487" y="196" type="curve" smooth="yes"/>
      <point x="385" y="196"/>
      <point x="377" y="291"/>
      <point x="377" y="437" type="curve" smooth="yes"/>
      <point x="377" y="732" type="line"/>
      <point x="854" y="732" type="line"/>
      <point x="854" y="1053" type="line" smooth="yes"/>
      <point x="854" y="1340"/>
      <point x="773" y="1518"/>
      <point x="493" y="1518" type="curve" smooth="yes"/>
      <point x="218" y="1518"/>
      <point x="110" y="1338"/>
      <point x="110" y="1058" type="curve" smooth="yes"/>
      <point x="110" y="499" type="line" smooth="yes"/>
    </contour>
    <contour>
      <point x="376" y="887" type="line"/>
      <point x="376" y="1072" type="line" smooth="yes"/>
      <point x="376" y="1208"/>
      <point x="385" y="1309"/>
      <point x="491" y="1309" type="curve" smooth="yes"/>
      <point x="576" y="1309"/>
      <point x="590" y="1229"/>
      <point x="590" y="1079" type="curve" smooth="yes"/>
      <point x="590" y="887" type="line"/>
    </contour>
    <contour>
      <point x="700" y="10" type="move" name="ogonek"/>
    </contour>
    <contour>
      <point x="518" y="0" type="move" name="bottom"/>
    </contour>
    <contour>
      <point x="486" y="1499" type="move" name="top"/>
    </contour>
  </outline>
</glyph>
<glyph name="f" format="1">
  <advance width="637"/>
  <unicode hex="0066"/>
  <outline>
    <contour>
      <point x="173" y="0" type="line"/>
      <point x="173" y="1250" type="line"/>
      <point x="57" y="1250" type="line"/>
      <point x="57" y="1441" type="line"/>
      <point x="174" y="1441" type="line"/>
      <point x="174" y="1519" type="line" smooth="yes"/>
      <point x="174" y="1687"/>
      <point x="264" y="1784"/>
      <point x="425" y="1784" type="curve" smooth="yes"/>
      <point x="507" y="1784"/>
      <point x="574" y="1765"/>
      <point x="590" y="1759" type="curve"/>
      <point x="590" y="1593" type="line"/>
      <point x="568" y="1596"/>
      <point x="548" y="1597"/>
      <point x="530" y="1597" type="curve" smooth="yes"/>
      <point x="462" y="1597"/>
      <point x="438" y="1569"/>
      <point x="438" y="1511" type="curve" smooth="yes"/>
      <point x="438" y="1441" type="line"/>
      <point x="590" y="1441" type="line"/>
      <point x="590" y="1250" type="line"/>
      <point x="438" y="1250" type="line"/>
      <point x="438" y="0" type="line"/>
    </contour>
  </outline>
</glyph>
<glyph name="g" format="1">
  <advance width="990"/>
  <unicode hex="0067"/>
  <outline>
    <contour>
      <point x="195" y="-195"/>
      <point x="303" y="-228"/>
      <point x="469" y="-225" type="curve" smooth="yes"/>
      <point x="768" y="-220"/>
      <point x="865" y="-53"/>
      <point x="865" y="185" type="curve" smooth="yes"/>
      <point x="865" y="1500" type="line"/>
      <point x="600" y="1500" type="line"/>
      <point x="600" y="1367" type="line"/>
      <point x="573" y="1464"/>
      <point x="505" y="1518"/>
      <point x="402" y="1518" type="curve" smooth="yes"/>
      <point x="181" y="1520"/>
      <point x="114" y="1326"/>
      <point x="114" y="1065" type="curve" smooth="yes"/>
      <point x="114" y="582" type="line" smooth="yes"/>
      <point x="114" y="335"/>
      <point x="178" y="153"/>
      <point x="391" y="153" type="curve" smooth="yes"/>
      <point x="492" y="153"/>
      <point x="565" y="184"/>
      <point x="600" y="284" type="curve"/>
      <point x="600" y="165" type="line" smooth="yes"/>
      <point x="600" y="49"/>
      <point x="545" y="-26"/>
      <point x="444" y="-27" type="curve" smooth="yes"/>
      <point x="346" y="-29"/>
      <point x="264" y="4"/>
      <point x="193" y="49" type="curve"/>
      <point x="100" y="-118" type="line"/>
    </contour>
    <contour>
      <point x="600" y="408"/>
      <point x="567" y="354"/>
      <point x="496" y="354" type="curve" smooth="yes"/>
      <point x="399" y="354"/>
      <point x="381" y="446"/>
      <point x="381" y="594" type="curve" smooth="yes"/>
      <point x="381" y="1088" type="line" smooth="yes"/>
      <point x="381" y="1213"/>
      <point x="392" y="1304"/>
      <point x="489" y="1304" type="curve" smooth="yes"/>
      <point x="573" y="1304"/>
      <point x="600" y="1219"/>
      <point x="600" y="1087" type="curve" smooth="yes"/>
      <point x="600" y="596" type="line" smooth="yes"/>
    </contour>
    <contour>
      <point x="520" y="1500" type="move" name="top"/>
    </contour>
  </outline>
</glyph>
<glyph name="h" format="1">
  <advance width="1016"/>
  <unicode hex="0068"/>
  <outline>
    <contour>
      <point x="132" y="0" type="line"/>
      <point x="132" y="1775" type="line"/>
      <point x="397" y="1775" type="line"/>
      <point x="397" y="1328" type="line"/>
      <point x="423" y="1430"/>
      <point x="507" y="1518"/>
      <point x="630" y="1518" type="curve" smooth="yes"/>
      <point x="804" y="1518"/>
      <point x="894" y="1399"/>
      <point x="894" y="1181" type="curve" smooth="yes"/>
      <point x="894" y="0" type="line"/>
      <point x="630" y="0" type="line"/>
      <point x="630" y="1156" type="line" smooth="yes"/>
      <point x="630" y="1252"/>
      <point x="592" y="1301"/>
      <point x="524" y="1301" type="curve" smooth="yes"/>
      <point x="441" y="1301"/>
      <point x="397" y="1227"/>
      <point x="397" y="1115" type="curve" smooth="yes"/>
      <point x="397" y="0" type="line"/>
    </contour>
  </outline>
</glyph>
<glyph name="i" format="1">
  <advance width="530.0"/>
  <unicode hex="0069"/>
  <outline>
    <contour>
      <point x="135.0" y="1500" type="line"/>
      <point x="400.0" y="1500" type="line"/>
      <point x="400.0" y="0" type="line"/>
      <point x="135.0" y="0" type="line"/>
    </contour>
    <contour>
      <point x="132.0" y="1868" type="line"/>
      <point x="399.0" y="1868" type="line"/>
      <point x="399.0" y="1638" type="line"/>
      <point x="132.0" y="1638" type="line"/>
    </contour>
  </outline>
</glyph>
<glyph name="j" format="1">
  <advance width="556.0"/>
  <unicode hex="006A"/>
  <outline>
    <contour>
      <point x="168.0" y="1500" type="line"/>
      <point x="433.0" y="1500" type="line"/>
      <point x="433.0" y="79" type="line" smooth="yes"/>
      <point x="433.0" y="-109"/>
      <point x="351.0" y="-193"/>
      <point x="221.0" y="-196" type="curve"/>
      <point x="146.0" y="-200"/>
      <point x="73.0" y="-189"/>
      <point x="60.0" y="-180" type="curve"/>
      <point x="60.0" y="3" type="line"/>
      <point x="64.0" y="2"/>
      <point x="88.0" y="0"/>
      <point x="104.999999999" y="2" type="curve"/>
      <point x="153.0" y="4"/>
      <point x="168.0" y="32"/>
      <point x="168.0" y="69" type="curve" smooth="yes"/>
    </contour>
    <contour>
      <point x="164.0" y="1868" type="line"/>
      <point x="431.0" y="1868" type="line"/>
      <point x="431.0" y="1638" type="line"/>
      <point x="164.0" y="1638" type="line"/>
    </contour>
  </outline>
</glyph>
<glyph name="k" format="1">
  <advance width="937"/>
  <unicode hex="006B"/>
  <outline>
    <contour>
      <point x="669" y="0" type="line"/>
      <point x="939" y="0" type="line"/>
      <point x="633" y="762" type="line"/>
      <point x="922" y="1500" type="line"/>
      <point x="653" y="1500" type="line"/>
      <point x="377" y="765" type="line"/>
    </contour>
    <contour>
      <point x="132" y="0" type="line"/>
      <point x="397" y="0" type="line"/>
      <point x="397" y="1775" type="line"/>
      <point x="132" y="1775" type="line"/>
    </contour>
    <contour>
      <point x="469" y="0" type="move" name="bottom"/>
    </contour>
  </outline>
</glyph>
<glyph name="l" format="1">
  <advance width="534"/>
  <unicode hex="006C"/>
  <outline>
    <contour>
      <point x="135" y="0" type="line"/>
      <point x="399" y="0" type="line"/>
      <point x="399" y="1775" type="line"/>
      <point x="135" y="1775" type="line"/>
    </contour>
    <contour>
      <point x="267" y="1760" type="move" name="top"/>
    </contour>
    <contour>
      <point x="267" y="0" type="move" name="bottom"/>
    </contour>
    <contour>
      <point x="528" y="1500" type="move" name="topright"/>
    </contour>
  </outline>
</glyph>
<glyph name="m" format="1">
  <advance width="1505"/>
  <unicode hex="006D"/>
  <outline>
    <contour>
      <point x="132" y="0" type="line"/>
      <point x="397" y="0" type="line"/>
      <point x="397" y="1124" type="line" smooth="yes"/>
      <point x="397" y="1220"/>
      <point x="435" y="1301"/>
      <point x="527" y="1301" type="curve" smooth="yes"/>
      <point x="597" y="1301"/>
      <point x="625" y="1243"/>
      <point x="625" y="1154" type="curve" smooth="yes"/>
      <point x="625" y="0" type="line"/>
      <point x="890" y="0" type="line"/>
      <point x="890" y="1148" type="line" smooth="yes"/>
      <point x="890" y="1426"/>
      <point x="790" y="1518"/>
      <point x="637" y="1518" type="curve" smooth="yes"/>
      <point x="502" y="1518"/>
      <point x="426" y="1443"/>
      <point x="397" y="1337" type="curve"/>
      <point x="397" y="1500" type="line"/>
      <point x="132" y="1500" type="line"/>
    </contour>
    <contour>
      <point x="1118" y="0" type="line"/>
      <point x="1382" y="0" type="line"/>
      <point x="1382" y="1149" type="line" smooth="yes"/>
      <point x="1382" y="1380"/>
      <point x="1309" y="1518"/>
      <point x="1114" y="1518" type="curve" smooth="yes"/>
      <point x="986" y="1518"/>
      <point x="904" y="1456"/>
      <point x="854" y="1358" type="curve" smooth="yes"/>
      <point x="890" y="1138" type="line"/>
      <point x="890" y="1245"/>
      <point x="937" y="1301"/>
      <point x="1017" y="1301" type="curve" smooth="yes"/>
      <point x="1080" y="1301"/>
      <point x="1118" y="1259"/>
      <point x="1118" y="1152" type="curve" smooth="yes"/>
    </contour>
    <contour>
      <point x="831" y="1500" type="move" name="top"/>
    </contour>
  </outline>
</glyph>
<glyph name="n" format="1">
  <advance width="1020"/>
  <unicode hex="006E"/>
  <outline>
    <contour>
      <point x="396" y="1328" type="line"/>
      <point x="422" y="1430"/>
      <point x="513" y="1518"/>
      <point x="637" y="1518" type="curve" smooth="yes"/>
      <point x="810" y="1518"/>
      <point x="897" y="1399"/>
      <point x="897" y="1181" type="curve" smooth="yes"/>
      <point x="897" y="0" type="line"/>
      <point x="632" y="0" type="line"/>
      <point x="632" y="1165" type="line" smooth="yes"/>
      <point x="632" y="1252"/>
      <point x="590" y="1304"/>
      <point x="522" y="1304" type="curve" smooth="yes"/>
      <point x="439" y="1304"/>
      <point x="396" y="1232"/>
      <point x="396" y="1127" type="curve" smooth="yes"/>
      <point x="396" y="0" type="line"/>
      <point x="131" y="0" type="line"/>
      <point x="131" y="1500" type="line"/>
      <point x="396" y="1500" type="line"/>
    </contour>
  </outline>
</glyph>
<glyph name="o" format="1">
  <advance width="970"/>
  <unicode hex="006F"/>
  <outline>
    <contour>
      <point x="593" y="284"/>
      <point x="575" y="196"/>
      <point x="486" y="196" type="curve" smooth="yes"/>
      <point x="395" y="196"/>
      <point x="377" y="284"/>
      <point x="377" y="413" type="curve" smooth="yes"/>
      <point x="377" y="1084" type="line" smooth="yes"/>
      <point x="377" y="1219"/>
      <point x="396" y="1304"/>
      <point x="486" y="1304" type="curve" smooth="yes"/>
      <point x="572" y="1304"/>
      <point x="593" y="1219"/>
      <point x="593" y="1084" type="curve" smooth="yes"/>
      <point x="593" y="413" type="line" smooth="yes"/>
    </contour>
    <contour>
      <point x="110" y="165"/>
      <point x="197" y="-18"/>
      <point x="486" y="-18" type="curve" smooth="yes"/>
      <point x="778" y="-18"/>
      <point x="860" y="170"/>
      <point x="860" y="476" type="curve" smooth="yes"/>
      <point x="860" y="1037" type="line" smooth="yes"/>
      <point x="860" y="1320"/>
      <point x="762" y="1518"/>
      <point x="486" y="1518" type="curve" smooth="yes"/>
      <point x="211" y="1518"/>
      <point x="110" y="1319"/>
      <point x="110" y="1037" type="curve" smooth="yes"/>
      <point x="110" y="476" type="line" smooth="yes"/>
    </contour>
    <contour>
      <point x="485" y="1500" type="move" name="top"/>
    </contour>
  </outline>
</glyph>
<glyph name="p" format="1">
  <advance width="998"/>
  <unicode hex="0070"/>
  <outline>
    <contour>
      <point x="514" y="197" type="curve" smooth="yes"/>
      <point x="603" y="197"/>
      <point x="621" y="287"/>
      <point x="621" y="450" type="curve" smooth="yes"/>
      <point x="621" y="1072" type="line" smooth="yes"/>
      <point x="621" y="1202"/>
      <point x="611" y="1304"/>
      <point x="516" y="1304" type="curve" smooth="yes"/>
      <point x="442" y="1304"/>
      <point x="397" y="1259"/>
      <point x="397" y="1073" type="curve" smooth="yes"/>
      <point x="397" y="439" type="line" smooth="yes"/>
      <point x="397" y="285"/>
      <point x="417" y="197"/>
    </contour>
    <contour>
      <point x="132" y="-285" type="line"/>
      <point x="132" y="1500" type="line"/>
      <point x="397" y="1500" type="line"/>
      <point x="397" y="1365" type="line"/>
      <point x="436" y="1463"/>
      <point x="529" y="1515"/>
      <point x="613" y="1515" type="curve" smooth="yes"/>
      <point x="843" y="1515"/>
      <point x="888" y="1312"/>
      <point x="888" y="1048" type="curve" smooth="yes"/>
      <point x="888" y="501" type="line" smooth="yes"/>
      <point x="888" y="212"/>
      <point x="851" y="-18"/>
      <point x="587" y="-18" type="curve" smooth="yes"/>
      <point x="505" y="-18"/>
      <point x="435" y="33"/>
      <point x="397" y="91" type="curve"/>
      <point x="397" y="-285" type="line"/>
    </contour>
  </outline>
</glyph>
<glyph name="q" format="1">
  <advance width="991"/>
  <unicode hex="0071"/>
  <outline>
    <contour>
      <point x="597" y="-285" type="line"/>
      <point x="862" y="-285" type="line"/>
      <point x="862" y="1500" type="line"/>
      <point x="597" y="1500" type="line"/>
      <point x="597" y="1386" type="line"/>
      <point x="558" y="1476"/>
      <point x="473" y="1515"/>
      <point x="389" y="1515" type="curve" smooth="yes"/>
      <point x="171" y="1515"/>
      <point x="110" y="1311"/>
      <point x="110" y="1048" type="curve" smooth="yes"/>
      <point x="110" y="481" type="line" smooth="yes"/>
      <point x="110" y="194"/>
      <point x="163" y="-18"/>
      <point x="411" y="-18" type="curve" smooth="yes"/>
      <point x="494" y="-18"/>
      <point x="570" y="37"/>
      <point x="597" y="102" type="curve"/>
    </contour>
    <contour>
      <point x="597" y="252"/>
      <point x="562" y="196"/>
      <point x="478" y="196" type="curve" smooth="yes"/>
      <point x="384" y="196"/>
      <point x="376" y="299"/>
      <point x="376" y="436" type="curve" smooth="yes"/>
      <point x="376" y="1058" type="line" smooth="yes"/>
      <point x="376" y="1213"/>
      <point x="390" y="1303"/>
      <point x="481" y="1303" type="curve" smooth="yes"/>
      <point x="569" y="1303"/>
      <point x="597" y="1226"/>
      <point x="597" y="1063" type="curve" smooth="yes"/>
      <point x="597" y="429" type="line" smooth="yes"/>
    </contour>
  </outline>
</glyph>
<glyph name="r" format="1">
  <advance width="688"/>
  <unicode hex="0072"/>
  <outline>
    <contour>
      <point x="132" y="0" type="line"/>
      <point x="399" y="0" type="line"/>
      <point x="399" y="1190" type="line"/>
      <point x="434" y="1263"/>
      <point x="564" y="1294"/>
      <point x="657" y="1294" type="curve"/>
      <point x="657" y="1294"/>
      <point x="659" y="1518"/>
      <point x="654" y="1518" type="curve" smooth="yes"/>
      <point x="521" y="1518"/>
      <point x="433" y="1449"/>
      <point x="399" y="1333" type="curve"/>
      <point x="399" y="1500" type="line"/>
      <point x="132" y="1500" type="line"/>
    </contour>
    <contour>
      <point x="392" y="1500" type="move" name="top"/>
    </contour>
    <contour>
      <point x="322" y="0" type="move" name="bottom"/>
    </contour>
  </outline>
</glyph>
<glyph name="s" format="1">
  <advance width="867"/>
  <unicode hex="0073"/>
  <outline>
    <contour>
      <point x="444" y="-19" type="curve" smooth="yes"/>
      <point x="203" y="-19"/>
      <point x="87" y="109"/>
      <point x="87" y="421" type="curve" smooth="yes"/>
      <point x="87" y="518" type="line"/>
      <point x="336" y="518" type="line"/>
      <point x="336" y="397" type="line" smooth="yes"/>
      <point x="336" y="266"/>
      <point x="366" y="197"/>
      <point x="438" y="197" type="curve" smooth="yes"/>
      <point x="508" y="197"/>
      <point x="540" y="238"/>
      <point x="540" y="353" type="curve" smooth="yes"/>
      <point x="540" y="453"/>
      <point x="497" y="543"/>
      <point x="402" y="631" type="curve" smooth="yes"/>
      <point x="393" y="640"/>
      <point x="287" y="734"/>
      <point x="267" y="753" type="curve" smooth="yes"/>
      <point x="143" y="866"/>
      <point x="82" y="993"/>
      <point x="82" y="1150" type="curve" smooth="yes"/>
      <point x="82" y="1404"/>
      <point x="203" y="1518"/>
      <point x="437" y="1518" type="curve" smooth="yes"/>
      <point x="665" y="1518"/>
      <point x="775" y="1402"/>
      <point x="775" y="1083" type="curve" smooth="yes"/>
      <point x="775" y="1001" type="line"/>
      <point x="538" y="1001" type="line"/>
      <point x="538" y="1100" type="line" smooth="yes"/>
      <point x="538" y="1232"/>
      <point x="512" y="1301"/>
      <point x="439" y="1301" type="curve" smooth="yes"/>
      <point x="369" y="1301"/>
      <point x="337" y="1267"/>
      <point x="334" y="1168" type="curve"/>
      <point x="333" y="1088"/>
      <point x="366" y="1014"/>
      <point x="440" y="943" type="curve"/>
      <point x="582" y="814" type="line"/>
      <point x="729" y="677"/>
      <point x="801" y="535"/>
      <point x="801" y="365" type="curve" smooth="yes"/>
      <point x="801" y="113"/>
      <point x="691" y="-19"/>
    </contour>
  </outline>
</glyph>
<glyph name="t" format="1">
  <advance width="645"/>
  <unicode hex="0074"/>
  <outline>
    <contour>
      <point x="169" y="60"/>
      <point x="212" y="-10"/>
      <point x="405" y="-10" type="curve" smooth="yes"/>
      <point x="585" y="-10" type="line"/>
      <point x="585" y="192" type="line"/>
      <point x="457" y="192"/>
      <point x="434" y="204"/>
      <point x="434" y="275" type="curve" smooth="yes"/>
      <point x="434" y="1277" type="line"/>
      <point x="580" y="1277" type="line"/>
      <point x="580" y="1469" type="line"/>
      <point x="434" y="1469" type="line"/>
      <point x="434" y="1761" type="line"/>
      <point x="169" y="1761" type="line"/>
      <point x="169" y="1469" type="line"/>
      <point x="47" y="1469" type="line"/>
      <point x="47" y="1277" type="line"/>
      <point x="169" y="1277" type="line"/>
      <point x="169" y="229" type="line" smooth="yes"/>
    </contour>
    <contour>
      <point x="323" y="0" type="move" name="center"/>
    </contour>
    <contour>
      <point x="370" y="0" type="move" name="bottom"/>
    </contour>
  </outline>
</glyph>
<glyph name="u" format="1">
  <advance width="1015"/>
  <unicode hex="0075"/>
  <outline>
    <contour>
      <point x="122" y="101"/>
      <point x="211" y="-19"/>
      <point x="389" y="-19" type="curve" smooth="yes"/>
      <point x="516" y="-19"/>
      <point x="581" y="54"/>
      <point x="618" y="156" type="curve"/>
      <point x="618" y="0" type="line"/>
      <point x="883" y="0" type="line"/>
      <point x="883" y="1500" type="line"/>
      <point x="619" y="1500" type="line"/>
      <point x="618" y="379" type="line" smooth="yes"/>
      <point x="618" y="284"/>
      <point x="590" y="199"/>
      <point x="497" y="199" type="curve" smooth="yes"/>
      <point x="408" y="199"/>
      <point x="388" y="266"/>
      <point x="388" y="381" type="curve" smooth="yes"/>
      <point x="388" y="1500" type="line"/>
      <point x="122" y="1500" type="line"/>
      <point x="122" y="340" type="line" smooth="yes"/>
    </contour>
    <contour>
      <point x="914" y="10" type="move" name="ogonek"/>
    </contour>
    <contour>
      <point x="517" y="1500" type="move" name="top"/>
    </contour>
  </outline>
</glyph>
<glyph name="v" format="1">
  <advance width="852.846153846"/>
  <unicode hex="0076"/>
  <outline>
    <contour>
      <point x="557.923076923" y="1500" type="line"/>
      <point x="805.923076923" y="1500" type="line"/>
      <point x="588.923076923" y="0" type="line"/>
      <point x="263.923076923" y="0" type="line"/>
      <point x="46.9230769231" y="1500" type="line"/>
      <point x="296.923076923" y="1500" type="line"/>
      <point x="393.923076923" y="702" type="line"/>
      <point x="426.923076923" y="343" type="line"/>
      <point x="446.923076923" y="343" type="line"/>
      <point x="474.923076923" y="703" type="line"/>
    </contour>
  </outline>
</glyph>
<glyph name="w" format="1">
  <advance width="1251"/>
  <unicode hex="0077"/>
  <outline>
    <contour>
      <point x="783" y="0" type="line"/>
      <point x="631" y="1127" type="line"/>
      <point x="469" y="0" type="line"/>
      <point x="245" y="0" type="line"/>
      <point x="44" y="1500" type="line"/>
      <point x="267" y="1500" type="line"/>
      <point x="343" y="867" type="line"/>
      <point x="377" y="545" type="line"/>
      <point x="383" y="545" type="line"/>
      <point x="416" y="868" type="line"/>
      <point x="505" y="1500" type="line"/>
      <point x="580" y="1500" type="line"/>
      <point x="684" y="1500" type="line"/>
      <point x="741" y="1500" type="line"/>
      <point x="839" y="880" type="line"/>
      <point x="881" y="545" type="line"/>
      <point x="887" y="545" type="line"/>
      <point x="916" y="879" type="line"/>
      <point x="983" y="1500" type="line"/>
      <point x="1205" y="1500" type="line"/>
      <point x="1015" y="0" type="line"/>
    </contour>
  </outline>
</glyph>
<glyph name="x" format="1">
  <advance width="820"/>
  <unicode hex="0078"/>
  <outline>
    <contour>
      <point x="17" y="0" type="line"/>
      <point x="262" y="0" type="line"/>
      <point x="485" y="721" type="line"/>
      <point x="523" y="721" type="line"/>
      <point x="789" y="1500" type="line"/>
      <point x="555" y="1500" type="line"/>
      <point x="341" y="797" type="line"/>
      <point x="289" y="797" type="line"/>
    </contour>
    <contour>
      <point x="558" y="0" type="line"/>
      <point x="804" y="0" type="line"/>
      <point x="269" y="1500" type="line"/>
      <point x="34" y="1500" type="line"/>
    </contour>
  </outline>
</glyph>
<glyph name="y" format="1">
  <advance width="852"/>
  <unicode hex="0079"/>
  <outline>
    <contour>
      <point x="88" y="-265" type="line"/>
      <point x="88" y="-82" type="line"/>
      <point x="175" y="-82" type="line" smooth="yes"/>
      <point x="234" y="-82"/>
      <point x="278" y="-76"/>
      <point x="283" y="-42" type="curve"/>
      <point x="293" y="-25"/>
      <point x="288" y="28"/>
      <point x="282" y="68" type="curve" smooth="yes"/>
      <point x="42" y="1501" type="line"/>
      <point x="294" y="1501" type="line"/>
      <point x="390" y="733" type="line"/>
      <point x="430" y="329" type="line"/>
      <point x="452" y="329" type="line"/>
      <point x="488" y="733" type="line"/>
      <point x="576" y="1501" type="line"/>
      <point x="827" y="1501" type="line"/>
      <point x="567" y="-64" type="line"/>
      <point x="545" y="-207"/>
      <point x="509" y="-265"/>
      <point x="370" y="-265" type="curve" smooth="yes"/>
    </contour>
  </outline>
</glyph>
<glyph name="z" format="1">
  <advance width="732.607305936"/>
  <unicode hex="007A"/>
  <outline>
    <contour>
      <point x="98.3333333333" y="1500" type="line"/>
      <point x="672.333333333" y="1500" type="line"/>
      <point x="672.333333333" y="1309" type="line"/>
      <point x="344.333333333" y="222" type="line"/>
      <point x="658.333333333" y="222" type="line"/>
      <point x="658.333333333" y="0" type="line"/>
      <point x="73.3333333333" y="0" type="line"/>
      <point x="73.3333333333" y="200" type="line"/>
      <point x="403.333333333" y="1273" type="line"/>
      <point x="98.3333333333" y="1273" type="line"/>
    </contour>
  </outline>
</glyph>
<glyph name="braceleft" format="1">
  <advance width="798"/>
  <unicode hex="007B"/>
  <outline>
    <contour>
      <point x="272" y="-45"/>
      <point x="367" y="-121"/>
      <point x="614" y="-121" type="curve" smooth="yes"/>
      <point x="674" y="-121" type="line"/>
      <point x="674" y="78" type="line"/>
      <point x="553" y="78"/>
      <point x="535" y="106"/>
      <point x="535" y="230" type="curve" smooth="yes"/>
      <point x="535" y="476" type="line" smooth="yes"/>
      <point x="535" y="728"/>
      <point x="509" y="790"/>
      <point x="376" y="830" type="curve"/>
      <point x="509" y="870"/>
      <point x="535" y="932"/>
      <point x="535" y="1184" type="curve" smooth="yes"/>
      <point x="535" y="1430" type="line" smooth="yes"/>
      <point x="535" y="1554"/>
      <point x="553" y="1582"/>
      <point x="674" y="1582" type="curve"/>
      <point x="674" y="1781" type="line"/>
      <point x="614" y="1781" type="line" smooth="yes"/>
      <point x="367" y="1781"/>
      <point x="272" y="1705"/>
      <point x="272" y="1443" type="curve" smooth="yes"/>
      <point x="272" y="1168" type="line" smooth="yes"/>
      <point x="272" y="999"/>
      <point x="264" y="950"/>
      <point x="133" y="950" type="curve"/>
      <point x="133" y="710" type="line"/>
      <point x="264" y="710"/>
      <point x="272" y="661"/>
      <point x="272" y="492" type="curve" smooth="yes"/>
      <point x="272" y="217" type="line" smooth="yes"/>
    </contour>
  </outline>
</glyph>
<glyph name="bar" format="1">
  <advance width="537"/>
  <unicode hex="007C"/>
  <outline>
    <contour>
      <point x="150" y="-84" type="line"/>
      <point x="393" y="-84" type="line"/>
      <point x="393" y="1683" type="line"/>
      <point x="150" y="1683" type="line"/>
    </contour>
  </outline>
</glyph>
<glyph name="asciitilde" format="1">
  <advance width="1117"/>
  <unicode hex="007E"/>
  <outline>
    <contour>
      <point x="473" y="914"/>
      <point x="652" y="810"/>
      <point x="766" y="810" type="curve" smooth="yes"/>
      <point x="887" y="810"/>
      <point x="988" y="1060"/>
      <point x="1009" y="1141" type="curve"/>
      <point x="823" y="1183" type="line"/>
      <point x="798" y="1102"/>
      <point x="755" y="1074"/>
      <point x="735" y="1072" type="curve" smooth="yes"/>
      <point x="671" y="1072"/>
      <point x="451" y="1169"/>
      <point x="347" y="1169" type="curve" smooth="yes"/>
      <point x="230" y="1169"/>
      <point x="151" y="1072"/>
      <point x="100" y="903" type="curve"/>
      <point x="272" y="821" type="line"/>
      <point x="299" y="884"/>
      <point x="319" y="914"/>
      <point x="367" y="914" type="curve" smooth="yes"/>
    </contour>
  </outline>
</glyph>
<glyph name="cent" format="1">
  <advance width="788"/>
  <unicode hex="00A2"/>
  <outline>
    <component base="c"/>
    <contour>
      <point x="529" y="1509" type="line"/>
      <point x="416" y="1511" type="line"/>
      <point x="416" y="1766" type="line"/>
      <point x="529" y="1766" type="line"/>
    </contour>
    <contour>
      <point x="416" y="-251" type="line"/>
      <point x="416" y="4" type="line"/>
      <point x="529" y="4" type="line"/>
      <point x="529" y="-251" type="line"/>
    </contour>
  </outline>
</glyph>
<glyph name="sterling" format="1">
  <advance width="1077"/>
  <unicode hex="00A3"/>
  <outline>
    <contour>
      <point x="82" y="0" type="line"/>
      <point x="82" y="205" type="line"/>
      <point x="245" y="276"/>
      <point x="337" y="403"/>
      <point x="337" y="631" type="curve" smooth="yes"/>
      <point x="337" y="679"/>
      <point x="332" y="733"/>
      <point x="322" y="783" type="curve"/>
      <point x="92" y="783" type="line"/>
      <point x="92" y="973" type="line"/>
      <point x="281" y="973" type="line"/>
      <point x="216" y="1180"/>
      <point x="166" y="1352"/>
      <point x="166" y="1389" type="curve" smooth="yes"/>
      <point x="166" y="1638"/>
      <point x="302" y="1781"/>
      <point x="592" y="1781" type="curve" smooth="yes"/>
      <point x="836" y="1781"/>
      <point x="963" y="1651"/>
      <point x="963" y="1381" type="curve" smooth="yes"/>
      <point x="963" y="1246" type="line"/>
      <point x="719" y="1246" type="line"/>
      <point x="719" y="1393" type="line" smooth="yes"/>
      <point x="719" y="1502"/>
      <point x="675" y="1567"/>
      <point x="585" y="1567" type="curve" smooth="yes"/>
      <point x="484" y="1567"/>
      <point x="417" y="1530"/>
      <point x="417" y="1414" type="curve" smooth="yes"/>
      <point x="417" y="1365"/>
      <point x="465" y="1224"/>
      <point x="532" y="973" type="curve"/>
      <point x="865" y="973" type="line"/>
      <point x="865" y="783" type="line"/>
      <point x="582" y="783" type="line"/>
      <point x="593" y="728"/>
      <point x="599" y="671"/>
      <point x="599" y="622" type="curve" smooth="yes"/>
      <point x="599" y="420"/>
      <point x="530" y="282"/>
      <point x="415" y="226" type="curve"/>
      <point x="954" y="226" type="line"/>
      <point x="954" y="0" type="line"/>
    </contour>
  </outline>
</glyph>
<glyph name="yen" format="1">
  <advance width="866"/>
  <unicode hex="00A5"/>
  <outline>
    <component base="Y"/>
    <contour>
      <point x="774" y="315" type="line"/>
      <point x="94" y="315" type="line"/>
      <point x="94" y="468" type="line"/>
      <point x="340" y="468" type="line"/>
      <point x="340" y="619" type="line"/>
      <point x="94" y="619" type="line"/>
      <point x="94" y="770" type="line"/>
      <point x="774" y="770" type="line"/>
      <point x="774" y="619" type="line"/>
      <point x="550" y="619" type="line"/>
      <point x="550" y="468" type="line"/>
      <point x="774" y="468" type="line"/>
    </contour>
  </outline>
</glyph>
<glyph name="brokenbar" format="1">
  <advance width="530"/>
  <unicode hex="00A6"/>
  <outline>
    <contour>
      <point x="122" y="931" type="line"/>
      <point x="122" y="1761" type="line"/>
      <point x="408" y="1761" type="line"/>
      <point x="408" y="931" type="line"/>
    </contour>
    <contour>
      <point x="122" y="-84" type="line"/>
      <point x="122" y="724" type="line"/>
      <point x="408" y="724" type="line"/>
      <point x="408" y="-84" type="line"/>
    </contour>
  </outline>
</glyph>
<glyph name="guillemotleft" format="1">
  <advance width="1304"/>
  <unicode hex="00AB"/>
  <outline>
    <contour>
      <point x="1133" y="327" type="line"/>
      <point x="642" y="612" type="line"/>
      <point x="642" y="887" type="line"/>
      <point x="1133" y="1158" type="line"/>
      <point x="1133" y="890" type="line"/>
      <point x="821" y="749" type="line"/>
      <point x="1133" y="599" type="line"/>
    </contour>
    <contour>
      <point x="579" y="327" type="line"/>
      <point x="88" y="612" type="line"/>
      <point x="88" y="887" type="line"/>
      <point x="579" y="1158" type="line"/>
      <point x="579" y="890" type="line"/>
      <point x="267" y="749" type="line"/>
      <point x="579" y="599" type="line"/>
    </contour>
  </outline>
</glyph>
<glyph name="macron" format="1">
  <advance width="696"/>
  <unicode hex="00AF"/>
  <outline>
    <contour>
      <point x="90" y="926" type="line"/>
      <point x="597" y="926" type="line"/>
      <point x="597" y="1077" type="line"/>
      <point x="90" y="1077" type="line"/>
    </contour>
    <contour>
      <point x="342" y="1009" type="move" name="_center"/>
    </contour>
    <contour>
      <point x="348" y="780" type="move" name="_top"/>
    </contour>
  </outline>
</glyph>
<glyph name="uni00B2" format="1">
  <advance width="831"/>
  <unicode hex="00B2"/>
  <outline>
    <contour>
      <point x="185" y="565" type="line"/>
      <point x="185" y="627" type="line" smooth="yes"/>
      <point x="185" y="797"/>
      <point x="378" y="1130"/>
      <point x="456" y="1226" type="curve"/>
      <point x="490" y="1280"/>
      <point x="511" y="1371"/>
      <point x="511" y="1455" type="curve" smooth="yes"/>
      <point x="511" y="1587"/>
      <point x="482" y="1621"/>
      <point x="439" y="1621" type="curve" smooth="yes"/>
      <point x="395" y="1621"/>
      <point x="365" y="1588"/>
      <point x="365" y="1448" type="curve" smooth="yes"/>
      <point x="365" y="1294" type="line"/>
      <point x="183" y="1294" type="line"/>
      <point x="182" y="1368" type="line"/>
      <point x="182" y="1633"/>
      <point x="219" y="1780"/>
      <point x="447" y="1780" type="curve" smooth="yes"/>
      <point x="623" y="1780"/>
      <point x="691" y="1631"/>
      <point x="691" y="1450" type="curve" smooth="yes"/>
      <point x="691" y="1129"/>
      <point x="458" y="981"/>
      <point x="387" y="716" type="curve"/>
      <point x="678" y="716" type="line"/>
      <point x="678" y="565" type="line"/>
    </contour>
  </outline>
</glyph>
<glyph name="acute" format="1">
  <advance width="650"/>
  <unicode hex="00B4"/>
  <outline>
    <contour>
      <point x="101" y="1763" type="line"/>
      <point x="101" y="1919" type="line"/>
      <point x="542" y="2111" type="line"/>
      <point x="542" y="1853" type="line"/>
    </contour>
  </outline>
</glyph>
<glyph name="paragraph" format="1">
  <advance width="1119"/>
  <unicode hex="00B6"/>
  <outline>
    <contour>
      <point x="442" y="0" type="line"/>
      <point x="442" y="1087" type="line"/>
      <point x="218" y="1112"/>
      <point x="109" y="1217"/>
      <point x="109" y="1437" type="curve" smooth="yes"/>
      <point x="109" y="1704"/>
      <point x="292" y="1761"/>
      <point x="641" y="1761" type="curve" smooth="yes"/>
      <point x="973" y="1761" type="line"/>
      <point x="973" y="0" type="line"/>
      <point x="779" y="0" type="line"/>
      <point x="779" y="1527" type="line"/>
      <point x="636" y="1527" type="line"/>
      <point x="636" y="0" type="line"/>
    </contour>
  </outline>
</glyph>
<glyph name="periodcentered" format="1">
  <advance width="480"/>
  <unicode hex="00B7"/>
  <outline>
    <contour>
      <point x="132" y="750" type="line"/>
      <point x="132" y="995" type="line"/>
      <point x="363" y="995" type="line"/>
      <point x="363" y="750" type="line"/>
    </contour>
  </outline>
</glyph>
<glyph name="cedilla" format="1">
  <advance width="1015"/>
  <unicode hex="00B8"/>
  <outline>
    <contour>
      <point x="366" y="-630"/>
      <point x="416" y="-638"/>
      <point x="466" y="-638" type="curve" smooth="yes"/>
      <point x="649" y="-638"/>
      <point x="753" y="-522"/>
      <point x="753" y="-396" type="curve" smooth="yes"/>
      <point x="753" y="-290"/>
      <point x="676" y="-193"/>
      <point x="525" y="-141" type="curve"/>
      <point x="510" y="0" type="line"/>
      <point x="428" y="0" type="line"/>
      <point x="388" y="-196" type="line"/>
      <point x="470" y="-214"/>
      <point x="548" y="-269"/>
      <point x="548" y="-359" type="curve" smooth="yes"/>
      <point x="548" y="-434"/>
      <point x="506" y="-501"/>
      <point x="317" y="-501" type="curve"/>
      <point x="317" y="-612" type="line"/>
    </contour>
    <contour>
      <point x="515" y="0" type="move" name="_bottom"/>
    </contour>
  </outline>
</glyph>
<glyph name="uni00B9" format="1">
  <advance width="628"/>
  <unicode hex="00B9"/>
  <outline>
    <contour>
      <point x="238" y="564" type="line"/>
      <point x="444" y="564" type="line"/>
      <point x="444" y="1759" type="line"/>
      <point x="295" y="1759" type="line"/>
      <point x="275" y="1675"/>
      <point x="154" y="1615"/>
      <point x="76" y="1609" type="curve"/>
      <point x="76" y="1479" type="line"/>
      <point x="132" y="1479"/>
      <point x="195" y="1496"/>
      <point x="238" y="1528" type="curve"/>
    </contour>
  </outline>
</glyph>
<glyph name="ordmasculine" format="1">
  <advance width="908"/>
  <unicode hex="00BA"/>
  <outline>
    <contour>
      <point x="464" y="381" type="curve" smooth="yes"/>
      <point x="233" y="381"/>
      <point x="159" y="528"/>
      <point x="159" y="776" type="curve" smooth="yes"/>
      <point x="159" y="1222" type="line" smooth="yes"/>
      <point x="159" y="1445"/>
      <point x="236" y="1606"/>
      <point x="464" y="1606" type="curve" smooth="yes"/>
      <point x="700" y="1606"/>
      <point x="766" y="1448"/>
      <point x="766" y="1222" type="curve" smooth="yes"/>
      <point x="766" y="776" type="line" smooth="yes"/>
      <point x="766" y="533"/>
      <point x="696" y="381"/>
    </contour>
    <contour>
      <point x="375" y="725" type="line" smooth="yes"/>
      <point x="375" y="620"/>
      <point x="398" y="552"/>
      <point x="464" y="551" type="curve" smooth="yes"/>
      <point x="527" y="550"/>
      <point x="551" y="616"/>
      <point x="551" y="725" type="curve" smooth="yes"/>
      <point x="551" y="1260" type="line" smooth="yes"/>
      <point x="551" y="1368"/>
      <point x="533" y="1435"/>
      <point x="464" y="1435" type="curve" smooth="yes"/>
      <point x="392" y="1435"/>
      <point x="375" y="1368"/>
      <point x="375" y="1260" type="curve" smooth="yes"/>
    </contour>
  </outline>
</glyph>
<glyph name="guillemotright" format="1">
  <advance width="1304"/>
  <unicode hex="00BB"/>
  <outline>
    <contour>
      <point x="704" y="327" type="line"/>
      <point x="704" y="599" type="line"/>
      <point x="1016" y="749" type="line"/>
      <point x="704" y="890" type="line"/>
      <point x="704" y="1158" type="line"/>
      <point x="1195" y="887" type="line"/>
      <point x="1195" y="612" type="line"/>
    </contour>
    <contour>
      <point x="151" y="327" type="line"/>
      <point x="151" y="599" type="line"/>
      <point x="463" y="749" type="line"/>
      <point x="151" y="890" type="line"/>
      <point x="151" y="1158" type="line"/>
      <point x="641" y="887" type="line"/>
      <point x="641" y="612" type="line"/>
    </contour>
  </outline>
</glyph>
<glyph name="onequarter" format="1">
  <advance width="1535"/>
  <unicode hex="00BC"/>
  <outline>
    <contour>
      <point x="1191" y="0" type="line"/>
      <point x="1350" y="0" type="line"/>
      <point x="1350" y="192" type="line"/>
      <point x="1419" y="192" type="line"/>
      <point x="1419" y="324" type="line"/>
      <point x="1350" y="324" type="line"/>
      <point x="1350" y="1065" type="line"/>
      <point x="1127" y="1065" type="line"/>
      <point x="902" y="306" type="line"/>
      <point x="902" y="192" type="line"/>
      <point x="1191" y="192" type="line"/>
    </contour>
    <contour>
      <point x="232" y="551" type="line"/>
      <point x="412" y="551" type="line"/>
      <point x="412" y="1680" type="line"/>
      <point x="280" y="1680" type="line"/>
      <point x="260" y="1600"/>
      <point x="158" y="1544"/>
      <point x="90" y="1538" type="curve"/>
      <point x="90" y="1419" type="line"/>
      <point x="139" y="1419"/>
      <point x="195" y="1435"/>
      <point x="232" y="1466" type="curve"/>
    </contour>
    <contour>
      <point x="423" y="0" type="line"/>
      <point x="612" y="0" type="line"/>
      <point x="1112" y="1767" type="line"/>
      <point x="923" y="1767" type="line"/>
    </contour>
    <contour>
      <point x="1050" y="324" type="line"/>
      <point x="1191" y="864" type="line"/>
      <point x="1191" y="324" type="line"/>
    </contour>
  </outline>
</glyph>
<glyph name="threequarters" format="1">
  <advance width="1555"/>
  <unicode hex="00BE"/>
  <outline>
    <contour>
      <point x="1070" y="324" type="line"/>
      <point x="1211" y="324" type="line"/>
      <point x="1211" y="864" type="line"/>
    </contour>
    <contour>
      <point x="474" y="0" type="line"/>
      <point x="974" y="1767" type="line"/>
      <point x="1163" y="1767" type="line"/>
      <point x="663" y="0" type="line"/>
    </contour>
    <contour>
      <point x="1211" y="0" type="line"/>
      <point x="1211" y="192" type="line"/>
      <point x="922" y="192" type="line"/>
      <point x="922" y="306" type="line"/>
      <point x="1147" y="1065" type="line"/>
      <point x="1370" y="1065" type="line"/>
      <point x="1370" y="324" type="line"/>
      <point x="1439" y="324" type="line"/>
      <point x="1439" y="192" type="line"/>
      <point x="1370" y="192" type="line"/>
      <point x="1370" y="0" type="line"/>
    </contour>
    <contour>
      <point x="316" y="598" type="curve" smooth="yes"/>
      <point x="150" y="598"/>
      <point x="83" y="698"/>
      <point x="83" y="899" type="curve" smooth="yes"/>
      <point x="83" y="969" type="line"/>
      <point x="243" y="969" type="line"/>
      <point x="243" y="899" type="line" smooth="yes"/>
      <point x="243" y="783"/>
      <point x="254" y="737"/>
      <point x="322" y="737" type="curve" smooth="yes"/>
      <point x="390" y="737"/>
      <point x="401" y="795"/>
      <point x="401" y="916" type="curve" smooth="yes"/>
      <point x="401" y="1050"/>
      <point x="378" y="1115"/>
      <point x="290" y="1115" type="curve" smooth="yes"/>
      <point x="286" y="1115"/>
      <point x="268" y="1115"/>
      <point x="265" y="1114" type="curve"/>
      <point x="265" y="1250" type="line"/>
      <point x="286" y="1250" type="line" smooth="yes"/>
      <point x="364" y="1252"/>
      <point x="401" y="1278"/>
      <point x="401" y="1407" type="curve" smooth="yes"/>
      <point x="401" y="1524"/>
      <point x="369" y="1553"/>
      <point x="323" y="1553" type="curve" smooth="yes"/>
      <point x="268" y="1553"/>
      <point x="250" y="1513"/>
      <point x="250" y="1404" type="curve" smooth="yes"/>
      <point x="250" y="1399"/>
      <point x="249" y="1383"/>
      <point x="249" y="1378" type="curve"/>
      <point x="88" y="1378" type="line"/>
      <point x="88" y="1408" type="line" smooth="yes"/>
      <point x="88" y="1601"/>
      <point x="157" y="1691"/>
      <point x="323" y="1691" type="curve" smooth="yes"/>
      <point x="486" y="1691"/>
      <point x="561" y="1595"/>
      <point x="561" y="1408" type="curve" smooth="yes"/>
      <point x="561" y="1294"/>
      <point x="534" y="1211"/>
      <point x="456" y="1183" type="curve"/>
      <point x="541" y="1144"/>
      <point x="564" y="1048"/>
      <point x="564" y="915" type="curve" smooth="yes"/>
      <point x="564" y="707"/>
      <point x="491" y="598"/>
    </contour>
  </outline>
</glyph>
<glyph name="AE" format="1">
  <advance width="1282"/>
  <unicode hex="00C6"/>
  <outline>
    <contour>
      <point x="71" y="0" type="line"/>
      <point x="331" y="0" type="line"/>
      <point x="385" y="314" type="line"/>
      <point x="625" y="314" type="line"/>
      <point x="625" y="0" type="line"/>
      <point x="1183" y="0" type="line"/>
      <point x="1183" y="231" type="line"/>
      <point x="893" y="231" type="line"/>
      <point x="893" y="785" type="line"/>
      <point x="1155" y="785" type="line"/>
      <point x="1155" y="1017" type="line"/>
      <point x="893" y="1017" type="line"/>
      <point x="893" y="1529" type="line"/>
      <point x="1171" y="1529" type="line"/>
      <point x="1171" y="1761" type="line"/>
      <point x="385" y="1761" type="line"/>
    </contour>
    <contour>
      <point x="415" y="512" type="line"/>
      <point x="590" y="1529" type="line"/>
      <point x="625" y="1530" type="line"/>
      <point x="625" y="512" type="line"/>
    </contour>
    <contour>
      <point x="685" y="0" type="move" name="top"/>
    </contour>
  </outline>
</glyph>
<glyph name="AE" format="1">
  <advance width="1246"/>
  <unicode hex="00C6"/>
  <outline>
    <contour>
      <point x="396" y="512" type="line"/>
      <point x="606" y="512" type="line"/>
      <point x="606" y="1530" type="line"/>
      <point x="571" y="1529" type="line"/>
    </contour>
    <contour>
      <point x="52" y="0" type="line"/>
      <point x="366" y="1761" type="line"/>
      <point x="1152" y="1761" type="line"/>
      <point x="1152" y="1529" type="line"/>
      <point x="874" y="1529" type="line"/>
      <point x="874" y="1017" type="line"/>
      <point x="1136" y="1017" type="line"/>
      <point x="1136" y="785" type="line"/>
      <point x="874" y="785" type="line"/>
      <point x="874" y="231" type="line"/>
      <point x="1164" y="231" type="line"/>
      <point x="1164" y="0" type="line"/>
      <point x="606" y="0" type="line"/>
      <point x="606" y="314" type="line"/>
      <point x="366" y="314" type="line"/>
      <point x="312" y="0" type="line"/>
    </contour>
  </outline>
</glyph>
<glyph name="Oslash" format="1">
  <advance width="900"/>
  <unicode hex="00D8"/>
  <outline>
    <contour>
      <point x="94" y="-166" type="line"/>
      <point x="822" y="1906" type="line"/>
      <point x="929" y="1870" type="line"/>
      <point x="193" y="-206" type="line"/>
    </contour>
    <component base="O"/>
  </outline>
</glyph>
<glyph name="Thorn" format="1">
  <advance width="982"/>
  <unicode hex="00DE"/>
  <outline>
    <contour>
      <point x="146" y="1761" type="line"/>
      <point x="414" y="1761" type="line"/>
      <point x="414" y="1497" type="line"/>
      <point x="550" y="1497" type="line" smooth="yes"/>
      <point x="832" y="1497"/>
      <point x="906" y="1310"/>
      <point x="910" y="981" type="curve" smooth="yes"/>
      <point x="910" y="953" type="line" smooth="yes"/>
      <point x="910" y="612"/>
      <point x="835" y="408"/>
      <point x="559" y="408" type="curve" smooth="yes"/>
      <point x="414" y="408" type="line"/>
      <point x="414" y="0" type="line"/>
      <point x="146" y="0" type="line"/>
    </contour>
    <contour>
      <point x="642" y="979" type="line" smooth="yes"/>
      <point x="642" y="1177"/>
      <point x="624" y="1290"/>
      <point x="508" y="1290" type="curve" smooth="yes"/>
      <point x="414" y="1290" type="line"/>
      <point x="414" y="630" type="line"/>
      <point x="506" y="630" type="line" smooth="yes"/>
      <point x="624" y="630"/>
      <point x="642" y="723"/>
      <point x="642" y="955" type="curve" smooth="yes"/>
    </contour>
  </outline>
</glyph>
<glyph name="germandbls" format="1">
  <advance width="1032"/>
  <unicode hex="00DF"/>
  <outline>
    <contour>
      <point x="135" y="0" type="line"/>
      <point x="400" y="0" type="line"/>
      <point x="400" y="1438" type="line" smooth="yes"/>
      <point x="400" y="1530"/>
      <point x="439" y="1562"/>
      <point x="517" y="1562" type="curve" smooth="yes"/>
      <point x="604" y="1562"/>
      <point x="635" y="1530"/>
      <point x="635" y="1438" type="curve" smooth="yes"/>
      <point x="635" y="1170" type="line" smooth="yes"/>
      <point x="635" y="1076"/>
      <point x="604" y="1032"/>
      <point x="498" y="1032" type="curve"/>
      <point x="498" y="832" type="line"/>
      <point x="648" y="832"/>
      <point x="695" y="789"/>
      <point x="695" y="656" type="curve" smooth="yes"/>
      <point x="695" y="395" type="line" smooth="yes"/>
      <point x="695" y="246"/>
      <point x="649" y="212"/>
      <point x="489" y="212" type="curve"/>
      <point x="489" y="0" type="line"/>
      <point x="593" y="0" type="line" smooth="yes"/>
      <point x="893" y="0"/>
      <point x="956" y="177"/>
      <point x="956" y="476" type="curve" smooth="yes"/>
      <point x="956" y="553" type="line" smooth="yes"/>
      <point x="956" y="781"/>
      <point x="907" y="905"/>
      <point x="737" y="945" type="curve"/>
      <point x="855" y="983"/>
      <point x="896" y="1066"/>
      <point x="896" y="1220" type="curve" smooth="yes"/>
      <point x="896" y="1417" type="line" smooth="yes"/>
      <point x="896" y="1688"/>
      <point x="774" y="1781"/>
      <point x="511" y="1781" type="curve" smooth="yes"/>
      <point x="228" y="1781"/>
      <point x="135" y="1660"/>
      <point x="135" y="1417" type="curve" smooth="yes"/>
    </contour>
  </outline>
</glyph>
<glyph name="ae" format="1">
  <advance width="1443"/>
  <unicode hex="00E6"/>
  <outline>
    <contour>
      <point x="730" y="1409" type="curve"/>
      <point x="780" y="1480"/>
      <point x="860" y="1518"/>
      <point x="977" y="1518" type="curve" smooth="yes"/>
      <point x="1257" y="1518"/>
      <point x="1339" y="1340"/>
      <point x="1339" y="1053" type="curve"/>
      <point x="1339" y="1053"/>
      <point x="1339" y="752"/>
      <point x="1337" y="726" type="curve"/>
      <point x="860" y="726" type="line"/>
      <point x="860" y="472" type="line" smooth="yes"/>
      <point x="860" y="287"/>
      <point x="880" y="196"/>
      <point x="971" y="196" type="curve" smooth="yes"/>
      <point x="1073" y="196"/>
      <point x="1075" y="323"/>
      <point x="1075" y="464" type="curve" smooth="yes"/>
      <point x="1075" y="494"/>
      <point x="1074" y="566"/>
      <point x="1074" y="569" type="curve"/>
      <point x="1337" y="569" type="line"/>
      <point x="1337" y="499" type="line" smooth="yes"/>
      <point x="1337" y="184"/>
      <point x="1288" y="-18"/>
      <point x="985" y="-18" type="curve" smooth="yes"/>
      <point x="851" y="-18"/>
      <point x="760" y="41"/>
      <point x="718" y="128" type="curve"/>
      <point x="671" y="54"/>
      <point x="563" y="-15"/>
      <point x="438" y="-15" type="curve" smooth="yes"/>
      <point x="219" y="-15"/>
      <point x="107" y="142"/>
      <point x="107" y="406" type="curve" smooth="yes"/>
      <point x="107" y="506" type="line" smooth="yes"/>
      <point x="112" y="814"/>
      <point x="301" y="860"/>
      <point x="592" y="969" type="curve"/>
      <point x="592" y="969"/>
      <point x="593" y="1038"/>
      <point x="592" y="1061" type="curve" smooth="yes"/>
      <point x="591" y="1205"/>
      <point x="581" y="1304"/>
      <point x="492" y="1304" type="curve" smooth="yes"/>
      <point x="409" y="1304"/>
      <point x="389" y="1247"/>
      <point x="389" y="1109" type="curve" smooth="yes"/>
      <point x="389" y="1036" type="line"/>
      <point x="128" y="1036" type="line"/>
      <point x="127" y="1042"/>
      <point x="127" y="1071"/>
      <point x="127" y="1081" type="curve" smooth="yes"/>
      <point x="127" y="1355"/>
      <point x="207" y="1518"/>
      <point x="501" y="1518" type="curve" smooth="yes"/>
      <point x="614" y="1518"/>
      <point x="686" y="1481"/>
    </contour>
    <contour>
      <point x="591" y="306" type="curve"/>
      <point x="591" y="803" type="line"/>
      <point x="427" y="731"/>
      <point x="377" y="694"/>
      <point x="377" y="544" type="curve" smooth="yes"/>
      <point x="377" y="393" type="line" smooth="yes"/>
      <point x="377" y="255"/>
      <point x="402" y="197"/>
      <point x="474" y="197" type="curve" smooth="yes"/>
      <point x="540" y="197"/>
      <point x="581" y="256"/>
    </contour>
    <contour>
      <point x="1074" y="1079" type="line" smooth="yes"/>
      <point x="1074" y="1229"/>
      <point x="1060" y="1309"/>
      <point x="975" y="1309" type="curve" smooth="yes"/>
      <point x="868" y="1309"/>
      <point x="860" y="1206"/>
      <point x="860" y="1057" type="curve" smooth="yes"/>
      <point x="860" y="906" type="line"/>
      <point x="1074" y="906" type="line"/>
    </contour>
  </outline>
</glyph>
<glyph name="thorn" format="1">
  <advance width="1000"/>
  <unicode hex="00FE"/>
  <outline>
    <contour>
      <point x="133" y="-285" type="line"/>
      <point x="399" y="-285" type="line"/>
      <point x="399" y="91" type="line"/>
      <point x="437" y="33"/>
      <point x="504" y="-18"/>
      <point x="586" y="-18" type="curve" smooth="yes"/>
      <point x="850" y="-18"/>
      <point x="885" y="212"/>
      <point x="885" y="501" type="curve" smooth="yes"/>
      <point x="885" y="1048" type="line" smooth="yes"/>
      <point x="885" y="1312"/>
      <point x="842" y="1515"/>
      <point x="612" y="1515" type="curve" smooth="yes"/>
      <point x="528" y="1515"/>
      <point x="438" y="1463"/>
      <point x="399" y="1365" type="curve"/>
      <point x="399" y="1775" type="line"/>
      <point x="133" y="1775" type="line"/>
    </contour>
    <contour>
      <point x="620" y="288"/>
      <point x="604" y="198"/>
      <point x="515" y="198" type="curve" smooth="yes"/>
      <point x="418" y="198"/>
      <point x="399" y="286"/>
      <point x="399" y="440" type="curve" smooth="yes"/>
      <point x="399" y="1070" type="line" smooth="yes"/>
      <point x="399" y="1256"/>
      <point x="442" y="1301"/>
      <point x="517" y="1301" type="curve" smooth="yes"/>
      <point x="611" y="1301"/>
      <point x="620" y="1199"/>
      <point x="620" y="1069" type="curve" smooth="yes"/>
      <point x="620" y="451" type="line" smooth="yes"/>
    </contour>
  </outline>
</glyph>
<glyph name="hbar" format="1">
  <advance width="1016"/>
  <unicode hex="0127"/>
  <outline>
    <contour>
      <point x="0" y="1702" type="line"/>
      <point x="663" y="1702" type="line"/>
      <point x="663" y="1593" type="line"/>
      <point x="0" y="1593" type="line"/>
    </contour>
    <component base="h"/>
  </outline>
</glyph>
<glyph name="dotlessi" format="1">
  <advance width="537"/>
  <unicode hex="0131"/>
  <outline>
    <contour>
      <point x="136" y="0" type="line"/>
      <point x="401" y="0" type="line"/>
      <point x="401" y="1500" type="line"/>
      <point x="136" y="1500" type="line"/>
    </contour>
    <contour>
      <point x="469" y="10" type="move" name="ogonek"/>
    </contour>
    <contour>
      <point x="264" y="1500" type="move" name="top"/>
    </contour>
  </outline>
</glyph>
<glyph name="Lcaron" format="1">
  <advance width="779"/>
  <unicode hex="013D"/>
  <outline>
    <component base="L"/>
    <contour>
      <point x="724" y="1173" type="line"/>
      <point x="780" y="1477" type="line"/>
      <point x="664" y="1477" type="line"/>
      <point x="664" y="1741" type="line"/>
      <point x="937" y="1741" type="line"/>
      <point x="937" y="1486" type="line"/>
      <point x="845" y="1173" type="line"/>
    </contour>
  </outline>
</glyph>
<glyph name="Lcaron" format="1">
  <advance width="779"/>
  <unicode hex="013D"/>
  <outline>
    <contour>
      <point x="724" y="1173" type="line"/>
      <point x="845" y="1173" type="line"/>
      <point x="937" y="1486" type="line"/>
      <point x="937" y="1741" type="line"/>
      <point x="664" y="1741" type="line"/>
      <point x="664" y="1477" type="line"/>
      <point x="780" y="1477" type="line"/>
    </contour>
    <component base="L"/>
  </outline>
</glyph>
<glyph name="Lslash" format="1">
  <advance width="794"/>
  <unicode hex="0141"/>
  <outline>
    <contour>
      <point x="-1" y="916" type="line"/>
      <point x="615" y="1145" type="line"/>
      <point x="615" y="961" type="line"/>
      <point x="-1" y="732" type="line"/>
    </contour>
    <component base="L"/>
  </outline>
</glyph>
<glyph name="OE" format="1">
  <advance width="1258"/>
  <unicode hex="0152"/>
  <outline>
    <contour>
      <point x="116" y="157"/>
      <point x="230" y="0"/>
      <point x="503" y="0" type="curve" smooth="yes"/>
      <point x="1159" y="0" type="line"/>
      <point x="1159" y="231" type="line"/>
      <point x="882" y="231" type="line"/>
      <point x="882" y="785" type="line"/>
      <point x="1131" y="785" type="line"/>
      <point x="1131" y="1017" type="line"/>
      <point x="882" y="1017" type="line"/>
      <point x="882" y="1529" type="line"/>
      <point x="1147" y="1529" type="line"/>
      <point x="1147" y="1761" type="line"/>
      <point x="506" y="1761" type="line" smooth="yes"/>
      <point x="224" y="1761"/>
      <point x="116" y="1598"/>
      <point x="116" y="1295" type="curve" smooth="yes"/>
      <point x="116" y="494" type="line" smooth="yes"/>
    </contour>
    <contour>
      <point x="503" y="233" type="line"/>
      <point x="399" y="234"/>
      <point x="384" y="298"/>
      <point x="384" y="491" type="curve" smooth="yes"/>
      <point x="384" y="1305" type="line" smooth="yes"/>
      <point x="384" y="1461"/>
      <point x="410" y="1524"/>
      <point x="506" y="1524" type="curve" smooth="yes"/>
      <point x="614" y="1524" type="line"/>
      <point x="614" y="233" type="line"/>
    </contour>
    <contour>
      <point x="656" y="0" type="move" name="top"/>
    </contour>
  </outline>
</glyph>
<glyph name="oe" format="1">
  <advance width="1619"/>
  <unicode hex="0153"/>
  <outline>
    <contour>
      <point x="88" y="167"/>
      <point x="181" y="-18"/>
      <point x="470" y="-18" type="curve" smooth="yes"/>
      <point x="577" y="-18"/>
      <point x="656" y="21"/>
      <point x="715" y="85" type="curve"/>
      <point x="769" y="21"/>
      <point x="845" y="-18"/>
      <point x="951" y="-18" type="curve" smooth="yes"/>
      <point x="1262" y="-18"/>
      <point x="1323" y="177"/>
      <point x="1323" y="499" type="curve" smooth="yes"/>
      <point x="1323" y="569" type="line"/>
      <point x="1059" y="569" type="line"/>
      <point x="1060" y="566"/>
      <point x="1060" y="494"/>
      <point x="1060" y="464" type="curve" smooth="yes"/>
      <point x="1060" y="323"/>
      <point x="1059" y="196"/>
      <point x="957" y="196" type="curve" smooth="yes"/>
      <point x="855" y="196"/>
      <point x="846" y="291"/>
      <point x="846" y="437" type="curve" smooth="yes"/>
      <point x="846" y="443"/>
      <point x="846" y="726"/>
      <point x="846" y="726" type="curve"/>
      <point x="1323" y="726" type="line"/>
      <point x="1325" y="752"/>
      <point x="1325" y="1053"/>
      <point x="1325" y="1053" type="curve" smooth="yes"/>
      <point x="1325" y="1340"/>
      <point x="1243" y="1518"/>
      <point x="963" y="1518" type="curve" smooth="yes"/>
      <point x="854" y="1518"/>
      <point x="773" y="1478"/>
      <point x="715" y="1410" type="curve"/>
      <point x="654" y="1478"/>
      <point x="574" y="1518"/>
      <point x="470" y="1518" type="curve" smooth="yes"/>
      <point x="195" y="1518"/>
      <point x="88" y="1319"/>
      <point x="88" y="1037" type="curve" smooth="yes"/>
      <point x="88" y="478" type="line" smooth="yes"/>
    </contour>
    <contour>
      <point x="580" y="284"/>
      <point x="558" y="196"/>
      <point x="470" y="196" type="curve" smooth="yes"/>
      <point x="378" y="196"/>
      <point x="358" y="284"/>
      <point x="358" y="413" type="curve" smooth="yes"/>
      <point x="358" y="1084" type="line" smooth="yes"/>
      <point x="358" y="1219"/>
      <point x="380" y="1304"/>
      <point x="470" y="1304" type="curve" smooth="yes"/>
      <point x="556" y="1304"/>
      <point x="580" y="1219"/>
      <point x="580" y="1084" type="curve" smooth="yes"/>
      <point x="580" y="413" type="line" smooth="yes"/>
    </contour>
    <contour>
      <point x="847" y="906" type="line"/>
      <point x="847" y="919"/>
      <point x="846" y="1047"/>
      <point x="846" y="1059" type="curve" smooth="yes"/>
      <point x="846" y="1195"/>
      <point x="855" y="1309"/>
      <point x="961" y="1309" type="curve" smooth="yes"/>
      <point x="1046" y="1309"/>
      <point x="1060" y="1229"/>
      <point x="1060" y="1079" type="curve" smooth="yes"/>
      <point x="1060" y="906" type="line"/>
    </contour>
    <contour>
      <point x="757" y="0" type="move" name="top"/>
    </contour>
  </outline>
</glyph>
<glyph name="uni0237" format="1">
  <advance width="568"/>
  <unicode hex="0237"/>
  <outline>
    <contour>
      <point x="225" y="-166" type="curve"/>
      <point x="151" y="-170"/>
      <point x="78" y="-159"/>
      <point x="65" y="-150" type="curve"/>
      <point x="65" y="32" type="line"/>
      <point x="69" y="32"/>
      <point x="93" y="30"/>
      <point x="110" y="31" type="curve" smooth="yes"/>
      <point x="158" y="34"/>
      <point x="173" y="61"/>
      <point x="173" y="98" type="curve" smooth="yes"/>
      <point x="173" y="1500" type="line"/>
      <point x="438" y="1500" type="line"/>
      <point x="438" y="108" type="line" smooth="yes"/>
      <point x="438" y="-80"/>
      <point x="356" y="-164"/>
    </contour>
  </outline>
</glyph>
<glyph name="caron" format="1">
  <advance width="970"/>
  <unicode hex="02C7"/>
  <outline>
    <contour>
      <point x="334" y="1608" type="line"/>
      <point x="636" y="1608" type="line"/>
      <point x="824" y="1946" type="line"/>
      <point x="571" y="1946" type="line"/>
      <point x="485" y="1709" type="line"/>
      <point x="399" y="1946" type="line"/>
      <point x="145" y="1946" type="line"/>
    </contour>
    <contour>
      <point x="485" y="1500" type="move" name="_top"/>
    </contour>
  </outline>
</glyph>
<glyph name="uni02C9" format="1">
  <advance width="696"/>
  <unicode hex="02C9"/>
  <outline>
    <contour>
      <point x="90" y="741" type="line"/>
      <point x="606" y="741" type="line"/>
      <point x="606" y="509" type="line"/>
      <point x="90" y="509" type="line"/>
    </contour>
  </outline>
</glyph>
<glyph name="breve" format="1">
  <advance width="1016"/>
  <unicode hex="02D8"/>
  <outline>
    <contour>
      <point x="225" y="1704"/>
      <point x="320" y="1615"/>
      <point x="506" y="1615" type="curve" smooth="yes"/>
      <point x="698" y="1615"/>
      <point x="789" y="1704"/>
      <point x="789" y="1879" type="curve" smooth="yes"/>
      <point x="789" y="1892" type="line"/>
      <point x="638" y="1892" type="line"/>
      <point x="638" y="1780"/>
      <point x="579" y="1762"/>
      <point x="508" y="1762" type="curve" smooth="yes"/>
      <point x="434" y="1762"/>
      <point x="375" y="1782"/>
      <point x="375" y="1892" type="curve"/>
      <point x="225" y="1892" type="line"/>
      <point x="225" y="1877" type="line" smooth="yes"/>
    </contour>
    <contour>
      <point x="508" y="1500" type="move" name="_top"/>
    </contour>
  </outline>
</glyph>
<glyph name="ring" format="1">
  <advance width="923"/>
  <unicode hex="02DA"/>
  <outline>
    <contour>
      <point x="461" y="906" type="curve" smooth="yes"/>
      <point x="315" y="906"/>
      <point x="228" y="1002"/>
      <point x="228" y="1130" type="curve" smooth="yes"/>
      <point x="228" y="1257"/>
      <point x="315" y="1354"/>
      <point x="461" y="1354" type="curve" smooth="yes"/>
      <point x="608" y="1354"/>
      <point x="694" y="1257"/>
      <point x="694" y="1130" type="curve" smooth="yes"/>
      <point x="694" y="1003"/>
      <point x="608" y="906"/>
    </contour>
    <contour>
      <point x="462" y="1000" type="curve" smooth="yes"/>
      <point x="541" y="1000"/>
      <point x="581" y="1065"/>
      <point x="581" y="1131" type="curve" smooth="yes"/>
      <point x="581" y="1196"/>
      <point x="541" y="1261"/>
      <point x="462" y="1261" type="curve" smooth="yes"/>
      <point x="383" y="1261"/>
      <point x="343" y="1196"/>
      <point x="343" y="1131" type="curve" smooth="yes"/>
      <point x="343" y="1065"/>
      <point x="383" y="1000"/>
    </contour>
  </outline>
</glyph>
<glyph name="ogonek" format="1">
  <advance width="1015"/>
  <unicode hex="02DB"/>
  <outline>
    <contour>
      <point x="643" y="-626" type="curve" smooth="yes"/>
      <point x="458" y="-626"/>
      <point x="358" y="-531"/>
      <point x="358" y="-382" type="curve" smooth="yes"/>
      <point x="358" y="-253"/>
      <point x="447" y="-99"/>
      <point x="624" y="0" type="curve"/>
      <point x="731" y="0" type="line"/>
      <point x="630" y="-106"/>
      <point x="551" y="-231"/>
      <point x="551" y="-339" type="curve" smooth="yes"/>
      <point x="551" y="-427"/>
      <point x="612" y="-468"/>
      <point x="703" y="-468" type="curve" smooth="yes"/>
      <point x="754" y="-468"/>
      <point x="799" y="-456"/>
      <point x="812" y="-453" type="curve"/>
      <point x="812" y="-591" type="line"/>
      <point x="789" y="-604"/>
      <point x="711" y="-626"/>
    </contour>
  </outline>
</glyph>
<glyph name="tilde" format="1">
  <advance width="1117"/>
  <unicode hex="02DC"/>
  <outline>
    <contour>
      <point x="510" y="988"/>
      <point x="623" y="906"/>
      <point x="711" y="906" type="curve" smooth="yes"/>
      <point x="800" y="906"/>
      <point x="854" y="945"/>
      <point x="883" y="1082" type="curve" smooth="yes"/>
      <point x="892" y="1130" type="line"/>
      <point x="750" y="1158" type="line"/>
      <point x="729" y="1098"/>
      <point x="713" y="1090"/>
      <point x="694" y="1087" type="curve"/>
      <point x="690" y="1087" type="line" smooth="yes"/>
      <point x="640" y="1087"/>
      <point x="496" y="1161"/>
      <point x="415" y="1161" type="curve" smooth="yes"/>
      <point x="327" y="1161"/>
      <point x="262" y="1114"/>
      <point x="223" y="979" type="curve"/>
      <point x="353" y="927" type="line"/>
      <point x="371" y="962"/>
      <point x="382" y="981"/>
      <point x="404" y="986" type="curve"/>
      <point x="411" y="988"/>
      <point x="419" y="988"/>
      <point x="427" y="988" type="curve" smooth="yes"/>
    </contour>
    <contour>
      <point x="558" y="780" type="move" name="_top"/>
    </contour>
  </outline>
</glyph>
<glyph name="hungarumlaut" format="1">
  <advance width="1300"/>
  <unicode hex="02DD"/>
  <outline>
    <contour>
      <point x="449" y="953" type="line"/>
      <point x="694" y="1344" type="line"/>
      <point x="487" y="1441" type="line"/>
      <point x="336" y="1000" type="line"/>
    </contour>
    <contour>
      <point x="784" y="948" type="line"/>
      <point x="1091" y="1340" type="line"/>
      <point x="880" y="1441" type="line"/>
      <point x="673" y="1000" type="line"/>
    </contour>
    <contour>
      <point x="661" y="780" type="move" name="_top"/>
    </contour>
  </outline>
</glyph>
<glyph name="uni0307" format="1">
  <advance width="572"/>
  <unicode hex="0307"/>
  <outline>
    <contour>
      <point x="107" y="955" type="line"/>
      <point x="465" y="955" type="line"/>
      <point x="465" y="1253" type="line"/>
      <point x="107" y="1253" type="line"/>
    </contour>
    <contour>
      <point x="286" y="780" type="move" name="_top"/>
    </contour>
  </outline>
</glyph>
<glyph name="dblgravecmb" format="1">
  <advance width="825"/>
  <unicode hex="030F"/>
  <outline>
    <contour>
      <point x="277" y="1644" type="line"/>
      <point x="400" y="1697" type="line"/>
      <point x="194" y="2109" type="line"/>
      <point x="3" y="2006" type="line"/>
    </contour>
    <contour>
      <point x="601" y="1644" type="line"/>
      <point x="724" y="1697" type="line"/>
      <point x="555" y="2109" type="line"/>
      <point x="368" y="2006" type="line"/>
    </contour>
    <contour>
      <point x="412" y="1500" type="move" name="_top"/>
    </contour>
  </outline>
</glyph>
<glyph name="uni0311" format="1">
  <advance width="1016"/>
  <unicode hex="0311"/>
  <outline>
    <contour>
      <point x="224" y="1644" type="line"/>
      <point x="224" y="1657" type="line"/>
      <point x="223" y="1832"/>
      <point x="313" y="1921"/>
      <point x="505" y="1923" type="curve" smooth="yes"/>
      <point x="691" y="1925"/>
      <point x="787" y="1837"/>
      <point x="789" y="1664" type="curve"/>
      <point x="789" y="1649" type="line"/>
      <point x="638" y="1648" type="line"/>
      <point x="637" y="1758"/>
      <point x="578" y="1777"/>
      <point x="504" y="1776" type="curve" smooth="yes"/>
      <point x="433" y="1775"/>
      <point x="374" y="1757"/>
      <point x="375" y="1644" type="curve"/>
    </contour>
  </outline>
</glyph>
<glyph name="Delta" format="1">
  <advance width="921"/>
  <unicode hex="0394"/>
  <outline>
    <contour>
      <point x="34" y="0" type="line"/>
      <point x="277" y="1353" type="line"/>
      <point x="641" y="1353" type="line"/>
      <point x="887" y="0" type="line"/>
    </contour>
    <contour>
      <point x="306" y="180" type="line"/>
      <point x="612" y="180" type="line"/>
      <point x="475" y="1124" type="line"/>
      <point x="443" y="1124" type="line"/>
    </contour>
  </outline>
</glyph>
<glyph name="mu" format="1">
  <advance width="1022"/>
  <unicode hex="03BC"/>
  <outline>
    <contour>
      <point x="619" y="1500" type="line"/>
      <point x="619" y="379" type="line" smooth="yes"/>
      <point x="618" y="284"/>
      <point x="590" y="199"/>
      <point x="497" y="199" type="curve" smooth="yes"/>
      <point x="408" y="199"/>
      <point x="388" y="266"/>
      <point x="388" y="381" type="curve" smooth="yes"/>
      <point x="388" y="1500" type="line"/>
      <point x="122" y="1500" type="line"/>
      <point x="122" y="-186" type="line"/>
      <point x="379" y="-186" type="line"/>
      <point x="379" y="-19" type="line"/>
      <point x="389" y="-19" type="line" smooth="yes"/>
      <point x="516" y="-19"/>
      <point x="581" y="54"/>
      <point x="618" y="156" type="curve"/>
      <point x="618" y="0" type="line"/>
      <point x="883" y="0" type="line"/>
      <point x="883" y="1500" type="line"/>
    </contour>
  </outline>
</glyph>
<glyph name="quoteleft" format="1">
  <advance width="586"/>
  <unicode hex="2018"/>
  <outline>
    <contour>
      <point x="119" y="1065" type="line"/>
      <point x="468" y="1065" type="line"/>
      <point x="468" y="1345" type="line"/>
      <point x="315" y="1345" type="line"/>
      <point x="408" y="1775" type="line"/>
      <point x="255" y="1775" type="line"/>
      <point x="119" y="1336" type="line"/>
    </contour>
  </outline>
</glyph>
<glyph name="quoteright" format="1">
  <advance width="586"/>
  <unicode hex="2019"/>
  <outline>
    <contour>
      <point x="188" y="1065" type="line"/>
      <point x="342" y="1065" type="line"/>
      <point x="478" y="1503" type="line"/>
      <point x="478" y="1775" type="line"/>
      <point x="129" y="1775" type="line"/>
      <point x="129" y="1494" type="line"/>
      <point x="282" y="1494" type="line"/>
    </contour>
  </outline>
</glyph>
<glyph name="quotesinglbase" format="1">
  <advance width="484"/>
  <unicode hex="201A"/>
  <outline>
    <contour>
      <point x="138" y="-324" type="line"/>
      <point x="216" y="0" type="line"/>
      <point x="80" y="0" type="line"/>
      <point x="80" y="258" type="line"/>
      <point x="411" y="258" type="line"/>
      <point x="411" y="9" type="line"/>
      <point x="302" y="-324" type="line"/>
    </contour>
  </outline>
</glyph>
<glyph name="quotedblright" format="1">
  <advance width="1077"/>
  <unicode hex="201D"/>
  <outline>
    <contour>
      <point x="678" y="1141" type="line"/>
      <point x="756" y="1513" type="line"/>
      <point x="621" y="1513" type="line"/>
      <point x="621" y="1775" type="line"/>
      <point x="952" y="1775" type="line"/>
      <point x="952" y="1522" type="line"/>
      <point x="842" y="1141" type="line"/>
    </contour>
    <contour>
      <point x="212" y="1141" type="line"/>
      <point x="290" y="1513" type="line"/>
      <point x="155" y="1513" type="line"/>
      <point x="155" y="1775" type="line"/>
      <point x="486" y="1775" type="line"/>
      <point x="486" y="1522" type="line"/>
      <point x="376" y="1141" type="line"/>
    </contour>
  </outline>
</glyph>
<glyph name="quotedblbase" format="1">
  <advance width="1016"/>
  <unicode hex="201E"/>
  <outline>
    <contour>
      <point x="208" y="-373" type="line"/>
      <point x="372" y="-373" type="line"/>
      <point x="481" y="8" type="line"/>
      <point x="481" y="261" type="line"/>
      <point x="151" y="261" type="line"/>
      <point x="151" y="0" type="line"/>
      <point x="286" y="0" type="line"/>
    </contour>
    <contour>
      <point x="674" y="-373" type="line"/>
      <point x="838" y="-373" type="line"/>
      <point x="947" y="8" type="line"/>
      <point x="947" y="261" type="line"/>
      <point x="617" y="261" type="line"/>
      <point x="617" y="0" type="line"/>
      <point x="752" y="0" type="line"/>
    </contour>
  </outline>
</glyph>
<glyph name="daggerdbl" format="1">
  <advance width="909"/>
  <unicode hex="2021"/>
  <outline>
    <contour>
      <point x="321" y="663.8" type="line"/>
      <point x="321" y="965" type="line"/>
      <point x="91" y="965" type="line"/>
      <point x="91" y="1182" type="line"/>
      <point x="321" y="1182" type="line"/>
      <point x="321" y="1592" type="line"/>
      <point x="591" y="1592" type="line"/>
      <point x="591" y="1182" type="line"/>
      <point x="818" y="1182" type="line"/>
      <point x="818" y="965" type="line"/>
      <point x="591" y="965" type="line"/>
      <point x="591" y="663.8" type="line"/>
      <point x="818" y="663.8" type="line"/>
      <point x="818" y="446.8" type="line"/>
      <point x="591" y="446.8" type="line"/>
      <point x="591" y="0" type="line"/>
      <point x="321" y="0" type="line"/>
      <point x="321" y="446.8" type="line"/>
      <point x="91" y="446.8" type="line"/>
      <point x="91" y="663.8" type="line"/>
    </contour>
  </outline>
</glyph>
<glyph name="bullet" format="1">
  <advance width="861"/>
  <unicode hex="2022"/>
  <outline>
    <contour>
      <point x="165" y="561"/>
      <point x="259" y="451"/>
      <point x="430" y="451" type="curve" smooth="yes"/>
      <point x="601" y="451"/>
      <point x="696" y="561"/>
      <point x="696" y="741" type="curve" smooth="yes"/>
      <point x="696" y="921"/>
      <point x="601" y="1031"/>
      <point x="430" y="1031" type="curve" smooth="yes"/>
      <point x="259" y="1031"/>
      <point x="165" y="921"/>
      <point x="165" y="741" type="curve" smooth="yes"/>
    </contour>
  </outline>
</glyph>
<glyph name="guilsinglright" format="1">
  <advance width="727"/>
  <unicode hex="203A"/>
  <outline>
    <contour>
      <point x="139" y="327" type="line"/>
      <point x="630" y="612" type="line"/>
      <point x="630" y="887" type="line"/>
      <point x="139" y="1158" type="line"/>
      <point x="139" y="890" type="line"/>
      <point x="451" y="749" type="line"/>
      <point x="139" y="599" type="line"/>
    </contour>
  </outline>
</glyph>
<glyph name="fraction" format="1">
  <advance width="829"/>
  <unicode hex="2044"/>
  <outline>
    <contour>
      <point x="57" y="0" type="line"/>
      <point x="526" y="1767" type="line"/>
      <point x="746" y="1767" type="line"/>
      <point x="276" y="0" type="line"/>
    </contour>
  </outline>
</glyph>
<glyph name="uni2074" format="1">
  <advance width="852"/>
  <unicode hex="2074"/>
  <outline>
    <contour>
      <point x="322" y="960" type="line"/>
      <point x="477" y="960" type="line"/>
      <point x="477" y="1519" type="line"/>
    </contour>
    <contour>
      <point x="477" y="605" type="line"/>
      <point x="477" y="811" type="line"/>
      <point x="150" y="811" type="line"/>
      <point x="150" y="940" type="line"/>
      <point x="399" y="1761" type="line"/>
      <point x="662" y="1761" type="line"/>
      <point x="662" y="960" type="line"/>
      <point x="736" y="960" type="line"/>
      <point x="736" y="811" type="line"/>
      <point x="662" y="811" type="line"/>
      <point x="662" y="605" type="line"/>
    </contour>
  </outline>
</glyph>
<glyph name="Euro" format="1">
  <advance width="1076"/>
  <unicode hex="20AC"/>
  <outline>
    <component base="C"/>
    <contour>
      <point x="548" y="1102" type="line"/>
      <point x="548" y="966" type="line"/>
      <point x="304" y="966" type="line"/>
      <point x="304" y="869" type="line"/>
      <point x="548" y="869" type="line"/>
      <point x="548" y="725" type="line"/>
      <point x="23" y="725" type="line"/>
      <point x="23" y="869" type="line"/>
      <point x="164" y="869" type="line"/>
      <point x="164" y="966" type="line"/>
      <point x="23" y="966" type="line"/>
      <point x="23" y="1102" type="line"/>
    </contour>
  </outline>
</glyph>
<glyph name="trademark" format="1">
  <advance width="1676"/>
  <unicode hex="2122"/>
  <outline>
    <contour>
      <point x="231" y="507" type="line"/>
      <point x="231" y="1592" type="line"/>
      <point x="82" y="1592" type="line"/>
      <point x="82" y="1761" type="line"/>
      <point x="572" y="1761" type="line"/>
      <point x="572" y="1592" type="line"/>
      <point x="429" y="1592" type="line"/>
      <point x="429" y="507" type="line"/>
    </contour>
    <contour>
      <point x="694" y="507" type="line"/>
      <point x="694" y="1761" type="line"/>
      <point x="981" y="1761" type="line"/>
      <point x="1129" y="883" type="line"/>
      <point x="1273" y="1761" type="line"/>
      <point x="1561" y="1761" type="line"/>
      <point x="1561" y="507" type="line"/>
      <point x="1373" y="507" type="line"/>
      <point x="1373" y="996" type="line"/>
      <point x="1380" y="1469" type="line"/>
      <point x="1223" y="507" type="line"/>
      <point x="1038" y="507" type="line"/>
      <point x="873" y="1469" type="line"/>
      <point x="880" y="996" type="line"/>
      <point x="880" y="507" type="line"/>
    </contour>
  </outline>
</glyph>
<glyph name="radical" format="1">
  <advance width="1267"/>
  <unicode hex="221A"/>
  <outline>
    <contour>
      <point x="288" y="0" type="line"/>
      <point x="99" y="741" type="line"/>
      <point x="358" y="741" type="line"/>
      <point x="432" y="288" type="line"/>
      <point x="660" y="1500" type="line"/>
      <point x="1172" y="1500" type="line"/>
      <point x="1172" y="1300" type="line"/>
      <point x="876" y="1300" type="line"/>
      <point x="612" y="0" type="line"/>
    </contour>
  </outline>
</glyph>
<glyph name="integral" format="1">
  <advance width="767"/>
  <unicode hex="222B"/>
  <outline>
    <contour>
      <point x="168" y="-9"/>
      <point x="226" y="-17"/>
      <point x="290" y="-17" type="curve" smooth="yes"/>
      <point x="442" y="-17"/>
      <point x="510" y="64"/>
      <point x="510" y="221" type="curve" smooth="yes"/>
      <point x="510" y="1484" type="line" smooth="yes"/>
      <point x="510" y="1553"/>
      <point x="523" y="1587"/>
      <point x="578" y="1587" type="curve" smooth="yes"/>
      <point x="596" y="1587"/>
      <point x="621" y="1582"/>
      <point x="652" y="1574" type="curve"/>
      <point x="652" y="1752" type="line"/>
      <point x="596" y="1773"/>
      <point x="535" y="1783"/>
      <point x="469" y="1783" type="curve" smooth="yes"/>
      <point x="323" y="1783"/>
      <point x="254" y="1702"/>
      <point x="254" y="1539" type="curve" smooth="yes"/>
      <point x="254" y="305" type="line" smooth="yes"/>
      <point x="254" y="215"/>
      <point x="246" y="182"/>
      <point x="163" y="182" type="curve" smooth="yes"/>
      <point x="150" y="182"/>
      <point x="134" y="184"/>
      <point x="115" y="186" type="curve"/>
      <point x="115" y="8" type="line"/>
    </contour>
  </outline>
</glyph>
<glyph name="approxequal" format="1">
  <advance width="1117"/>
  <unicode hex="2248"/>
  <outline>
    <contour>
      <point x="478" y="431"/>
      <point x="657" y="326"/>
      <point x="771" y="326" type="curve" smooth="yes"/>
      <point x="892" y="326"/>
      <point x="993" y="576"/>
      <point x="1014" y="658" type="curve"/>
      <point x="827" y="700" type="line"/>
      <point x="803" y="619"/>
      <point x="760" y="591"/>
      <point x="740" y="588" type="curve" smooth="yes"/>
      <point x="676" y="588"/>
      <point x="456" y="686"/>
      <point x="352" y="686" type="curve" smooth="yes"/>
      <point x="235" y="686"/>
      <point x="156" y="588"/>
      <point x="105" y="419" type="curve"/>
      <point x="277" y="338" type="line"/>
      <point x="305" y="404"/>
      <point x="331" y="431"/>
      <point x="372" y="431" type="curve" smooth="yes"/>
    </contour>
    <contour>
      <point x="478" y="924"/>
      <point x="657" y="819"/>
      <point x="771" y="819" type="curve" smooth="yes"/>
      <point x="892" y="819"/>
      <point x="993" y="1069"/>
      <point x="1014" y="1151" type="curve"/>
      <point x="827" y="1193" type="line"/>
      <point x="803" y="1112"/>
      <point x="760" y="1084"/>
      <point x="740" y="1081" type="curve" smooth="yes"/>
      <point x="676" y="1081"/>
      <point x="456" y="1179"/>
      <point x="352" y="1179" type="curve" smooth="yes"/>
      <point x="235" y="1179"/>
      <point x="156" y="1081"/>
      <point x="105" y="912" type="curve"/>
      <point x="277" y="831" type="line"/>
      <point x="305" y="897"/>
      <point x="331" y="924"/>
      <point x="372" y="924" type="curve" smooth="yes"/>
    </contour>
  </outline>
</glyph>
<glyph name="uniFB02" format="1">
  <advance width="1171"/>
  <unicode hex="FB02"/>
  <outline>
    <contour>
      <point x="793" y="1779"/>
      <point x="619" y="1798"/>
      <point x="493" y="1798" type="curve" smooth="yes"/>
      <point x="195" y="1798"/>
      <point x="174" y="1689"/>
      <point x="174" y="1519" type="curve" smooth="yes"/>
      <point x="174" y="1441" type="line"/>
      <point x="57" y="1441" type="line"/>
      <point x="57" y="1250" type="line"/>
      <point x="173" y="1250" type="line"/>
      <point x="173" y="0" type="line"/>
      <point x="438" y="0" type="line"/>
      <point x="438" y="1250" type="line"/>
      <point x="590" y="1250" type="line"/>
      <point x="590" y="1441" type="line"/>
      <point x="438" y="1441" type="line"/>
      <point x="438" y="1511" type="line" smooth="yes"/>
      <point x="438" y="1554"/>
      <point x="430" y="1622"/>
      <point x="568" y="1622" type="curve" smooth="yes"/>
      <point x="616" y="1622"/>
      <point x="682" y="1613"/>
      <point x="772" y="1593" type="curve"/>
      <point x="772" y="0" type="line"/>
      <point x="1036" y="0" type="line"/>
      <point x="1036" y="1737" type="line"/>
    </contour>
  </outline>
</glyph>
<glyph name="uniFB04" format="1">
  <advance width="1808"/>
  <unicode hex="FB04"/>
  <outline>
    <contour>
      <point x="811" y="1441" type="line"/>
      <point x="811" y="1519" type="line" smooth="yes"/>
      <point x="811" y="1689"/>
      <point x="832" y="1798"/>
      <point x="1130" y="1798" type="curve" smooth="yes"/>
      <point x="1256" y="1798"/>
      <point x="1430" y="1779"/>
      <point x="1673" y="1737" type="curve"/>
      <point x="1673" y="0" type="line"/>
      <point x="1409" y="0" type="line"/>
      <point x="1409" y="1593" type="line"/>
      <point x="1319" y="1613"/>
      <point x="1253" y="1622"/>
      <point x="1205" y="1622" type="curve" smooth="yes"/>
      <point x="1067" y="1622"/>
      <point x="1075" y="1554"/>
      <point x="1075" y="1511" type="curve" smooth="yes"/>
      <point x="1075" y="1441" type="line"/>
      <point x="1227" y="1441" type="line"/>
      <point x="1227" y="1250" type="line"/>
      <point x="1075" y="1250" type="line"/>
      <point x="1075" y="0" type="line"/>
      <point x="810" y="0" type="line"/>
      <point x="810" y="1250" type="line"/>
      <point x="438" y="1250" type="line"/>
      <point x="438" y="0" type="line"/>
      <point x="173" y="0" type="line"/>
      <point x="173" y="1250" type="line"/>
      <point x="57" y="1250" type="line"/>
      <point x="57" y="1441" type="line"/>
      <point x="174" y="1441" type="line"/>
      <point x="174" y="1519" type="line" smooth="yes"/>
      <point x="174" y="1687"/>
      <point x="264" y="1784"/>
      <point x="425" y="1784" type="curve" smooth="yes"/>
      <point x="507" y="1784"/>
      <point x="574" y="1765"/>
      <point x="590" y="1759" type="curve"/>
      <point x="590" y="1593" type="line"/>
      <point x="568" y="1596"/>
      <point x="548" y="1597"/>
      <point x="530" y="1597" type="curve" smooth="yes"/>
      <point x="462" y="1597"/>
      <point x="438" y="1569"/>
      <point x="438" y="1511" type="curve" smooth="yes"/>
      <point x="438" y="1441" type="line"/>
    </contour>
  </outline>
</glyph>
<glyph name="uniFB00" format="1">
  <advance width="1274"/>
  <outline>
    <contour>
      <point x="1227" y="1759" type="line"/>
      <point x="1211" y="1765"/>
      <point x="1144" y="1784"/>
      <point x="1062" y="1784" type="curve" smooth="yes"/>
      <point x="901" y="1784"/>
      <point x="811" y="1687"/>
      <point x="811" y="1519" type="curve" smooth="yes"/>
      <point x="811" y="1441" type="line"/>
      <point x="438" y="1441" type="line"/>
      <point x="438" y="1511" type="line" smooth="yes"/>
      <point x="438" y="1569"/>
      <point x="462" y="1597"/>
      <point x="530" y="1597" type="curve" smooth="yes"/>
      <point x="548" y="1597"/>
      <point x="568" y="1596"/>
      <point x="590" y="1593" type="curve"/>
      <point x="590" y="1759" type="line"/>
      <point x="574" y="1765"/>
      <point x="507" y="1784"/>
      <point x="425" y="1784" type="curve" smooth="yes"/>
      <point x="264" y="1784"/>
      <point x="174" y="1687"/>
      <point x="174" y="1519" type="curve" smooth="yes"/>
      <point x="174" y="1441" type="line"/>
      <point x="57" y="1441" type="line"/>
      <point x="57" y="1250" type="line"/>
      <point x="173" y="1250" type="line"/>
      <point x="173" y="0" type="line"/>
      <point x="438" y="0" type="line"/>
      <point x="438" y="1250" type="line"/>
      <point x="810" y="1250" type="line"/>
      <point x="810" y="0" type="line"/>
      <point x="1075" y="0" type="line"/>
      <point x="1075" y="1250" type="line"/>
      <point x="1227" y="1250" type="line"/>
      <point x="1227" y="1441" type="line"/>
      <point x="1075" y="1441" type="line"/>
      <point x="1075" y="1511" type="line" smooth="yes"/>
      <point x="1075" y="1569"/>
      <point x="1099" y="1597"/>
      <point x="1167" y="1597" type="curve" smooth="yes"/>
      <point x="1185" y="1597"/>
      <point x="1205" y="1596"/>
      <point x="1227" y="1593" type="curve"/>
    </contour>
  </outline>
</glyph>
